<svg width="16" height="16" viewBox="0 0 16 16" fill="none" xmlns="http://www.w3.org/2000/svg">
<g clip-path="url(#clip0_1_3)">
<path d="M2.85875 15.686H13.2037C13.2885 15.686 13.3607 15.5765 13.3607 15.451V0.40499C13.3607 0.27799 13.2885 0.17099 13.2037 0.17099H2.85875C2.81175 0.17099 2.777 0.19574 2.75225 0.23499C2.75225 0.23499 2.75225 0.23799 2.74875 0.24049L2.743 0.24924C2.71825 0.28474 2.70175 0.33499 2.70175 0.40499V15.4507C2.70175 15.5767 2.774 15.686 2.85875 15.686Z" fill="#D0D1D2"/>
<path d="M0.0682487 15.0475H15.9307V16.039H0.0682487V15.0475Z" fill="#D0D1D2"/>
<path d="M3.42675 16.0375H12.655C12.7305 16.0375 12.795 15.928 12.795 15.8023V0.758762C12.795 0.631762 12.7305 0.524261 12.655 0.524261H3.42675C3.385 0.524261 3.35375 0.549261 3.332 0.588261C3.332 0.588261 3.33175 0.591262 3.3285 0.594262C3.3285 0.594262 3.3265 0.598762 3.3235 0.603512C3.30125 0.637762 3.28675 0.688762 3.28675 0.758762V15.804C3.28675 15.93 3.351 16.0393 3.42675 16.0393" fill="#2B86CD"/>
<path d="M3.9495 16.0475H12.256C12.324 16.0475 12.3818 15.9415 12.3818 15.8193V1.21676C12.3818 1.09351 12.3243 0.989258 12.256 0.989258H3.9495C3.91225 0.989258 3.88375 1.01376 3.86425 1.05176C3.86425 1.05176 3.864 1.05451 3.86125 1.05726C3.86125 1.05726 3.85925 1.06201 3.8565 1.06626C3.8365 1.10001 3.8235 1.14951 3.8235 1.21676V15.8185C3.8235 15.941 3.88125 16.0468 3.9495 16.0468" fill="#00639C"/>
<path d="M4.56475 7.12801H7.948C7.9765 7.12801 7.99975 7.09201 7.99975 7.04951V1.99226C7.99975 1.94951 7.9765 1.91376 7.948 1.91376H4.5645C4.5495 1.91376 4.53775 1.92201 4.53 1.93501C4.53 1.93501 4.529 1.93551 4.529 1.93676L4.527 1.93976C4.51706 1.95539 4.51233 1.97377 4.5135 1.99226V7.04951C4.514 7.09226 4.53725 7.12801 4.56475 7.12801ZM4.39625 15.19H7.77925C7.80825 15.19 7.831 15.1518 7.831 15.1068V9.79626C7.831 9.75176 7.80825 9.71301 7.77925 9.71301H4.396C4.381 9.71301 4.369 9.72176 4.36125 9.73626C4.36125 9.73626 4.36025 9.73726 4.36025 9.73826L4.35825 9.74126C4.3485 9.75798 4.34381 9.77717 4.34475 9.79651V15.1068C4.34475 15.1515 4.36825 15.19 4.39625 15.19Z" fill="#2B86CD"/>
<path d="M4.73425 14.0675H7.4415C7.46475 14.0675 7.48325 14.0385 7.48325 14.0062V10.0685C7.48325 10.035 7.46475 10.007 7.4415 10.007H4.7345C4.72877 10.0071 4.72316 10.0087 4.71824 10.0116C4.71333 10.0145 4.70928 10.0187 4.7065 10.0237L4.706 10.0257C4.706 10.0257 4.705 10.0262 4.7045 10.0277C4.69717 10.0364 4.6935 10.05 4.6935 10.0685V14.0075C4.693 14.0392 4.712 14.0685 4.73425 14.0685" fill="#00639C"/>
<path d="M8.5625 15.19H11.9455C11.9745 15.19 11.9973 15.1518 11.9973 15.1068V9.79626C11.9973 9.75176 11.9745 9.71301 11.9455 9.71301H8.56225C8.54725 9.71301 8.53525 9.72176 8.52725 9.73626C8.52692 9.73643 8.52658 9.7371 8.52625 9.73826L8.52425 9.74126C8.5145 9.75798 8.50981 9.77718 8.51075 9.79651V15.1068C8.51125 15.1515 8.5345 15.19 8.5625 15.19Z" fill="#2B86CD"/>
<path d="M8.9 14.0675H11.6073C11.6305 14.0675 11.6488 14.0385 11.6488 14.0062V10.0685C11.6488 10.035 11.6305 10.007 11.6073 10.007H8.9C8.89427 10.0071 8.88866 10.0087 8.88375 10.0116C8.87883 10.0145 8.87478 10.0187 8.872 10.0237L8.8715 10.0257C8.8715 10.0257 8.8705 10.0262 8.87 10.0277C8.86283 10.0364 8.85917 10.05 8.859 10.0685V14.0075C8.859 14.0392 8.87775 14.0685 8.9 14.0685" fill="#00639C"/>
<path d="M5.2625 9.25301C5.81189 9.25301 6.25725 8.81738 6.25725 8.28001C6.25725 7.74263 5.81189 7.30701 5.2625 7.30701C4.71311 7.30701 4.26775 7.74263 4.26775 8.28001C4.26775 8.81738 4.71311 9.25301 5.2625 9.25301Z" fill="#2B86CD"/>
<path d="M5.2625 9.04101C5.69218 9.04101 6.0405 8.7003 6.0405 8.28001C6.0405 7.85972 5.69218 7.51901 5.2625 7.51901C4.83282 7.51901 4.4845 7.85972 4.4845 8.28001C4.4845 8.7003 4.83282 9.04101 5.2625 9.04101Z" fill="white"/>
<path d="M4.8175 6.45649H7.69625C7.7205 6.45649 7.74025 6.42549 7.74025 6.38924V2.08699C7.74025 2.05049 7.7205 2.01999 7.69625 2.01999H4.8165C4.81047 2.02 4.80457 2.0217 4.79945 2.02488C4.79432 2.02805 4.79019 2.03259 4.7875 2.03799C4.7875 2.03799 4.7865 2.03874 4.7865 2.03999L4.785 2.04274C4.77733 2.05207 4.7735 2.06682 4.7735 2.08699V6.38924C4.7735 6.42549 4.79325 6.45649 4.8165 6.45649" fill="#00639C"/>
<path d="M8.5625 7.12801H11.946C11.9745 7.12801 11.9977 7.09201 11.9977 7.04951V1.99226C11.9977 1.94951 11.9745 1.91376 11.946 1.91376H8.56225C8.54725 1.91376 8.53575 1.92201 8.52775 1.93501C8.52775 1.93501 8.52708 1.93559 8.52675 1.93676L8.52475 1.93976C8.51481 1.95539 8.51008 1.97377 8.51125 1.99226V7.04951C8.51175 7.09226 8.535 7.12801 8.5625 7.12801Z" fill="#2B86CD"/>
<path d="M8.815 6.45649H11.694C11.7182 6.45649 11.738 6.42549 11.738 6.38924V2.08699C11.738 2.05049 11.7182 2.01999 11.694 2.01999H8.81425C8.80822 2.02 8.80232 2.0217 8.79719 2.02488C8.79207 2.02805 8.78794 2.03259 8.78525 2.03799C8.78525 2.03799 8.78425 2.03874 8.78425 2.03999L8.78275 2.04274C8.77508 2.05207 8.77125 2.06682 8.77125 2.08699V6.38924C8.77125 6.42549 8.79075 6.45649 8.814 6.45649" fill="#00639C"/>
</g>
<defs>
<clipPath id="clip0_1_3">
<rect width="16" height="16" fill="white"/>
</clipPath>
</defs>
</svg>
