<svg width="30" height="40" viewBox="0 0 30 40" fill="none" xmlns="http://www.w3.org/2000/svg">
<path d="M15 0C6.71571 0 0 6.58075 0 14.6986C0 20.564 3.50602 25.6269 8.57676 27.9846C10.335 34.0008 12.4932 37.5993 13.8066 39.3987C14.3918 40.2004 15.6082 40.2004 16.1934 39.3987C17.5068 37.5993 19.665 34.0008 21.4232 27.9846C26.494 25.6269 30 20.5641 30 14.6986C30.0001 6.5807 23.2844 0 15 0ZM15 24.2887C9.5951 24.2887 5.21326 19.9949 5.21326 14.6985C5.21326 9.40217 9.59505 5.10844 15 5.10844C20.4051 5.10844 24.7868 9.40217 24.7868 14.6985C24.7868 19.9949 20.4051 24.2887 15 24.2887Z" fill="#0D4068"/>
</svg>
