<svg width="20" height="10" viewBox="0 0 20 14" fill="none" xmlns="http://www.w3.org/2000/svg">
<symbol id="mail">
<path d="M12.6263 6.52344C15.554 4.28401 18.1976 2.03806 19.451 0.953638C19.6069 0.81871 19.8497 0.922234 19.8602 1.1281C19.9188 2.27312 20 4.29662 20 6.72016C20 9.14362 19.9187 11.167 19.8602 12.3121C19.8496 12.518 19.6069 12.6214 19.451 12.4865C18.1964 11.4008 15.5493 9.15158 12.6264 6.91654C12.4968 6.81759 12.4968 6.62248 12.6263 6.52344ZM18.9888 0.691062C17.3639 2.09325 13.7629 5.13429 10.1449 7.74609C10.0584 7.80856 9.94168 7.80856 9.85517 7.74609C6.23717 5.13429 2.63618 2.09325 1.01129 0.691062C0.843599 0.5464 0.935696 0.271209 1.15671 0.25665C2.71262 0.153972 5.75476 0 10.0001 0C14.2454 0 17.2875 0.154057 18.8435 0.25665C19.0645 0.271209 19.1565 0.5464 18.9888 0.691062ZM0.549113 12.4865C0.393193 12.6214 0.150417 12.518 0.139836 12.3121C0.081175 11.167 0 9.14353 0 6.72016C0 4.29662 0.081268 2.27312 0.139929 1.1281C0.15051 0.922149 0.393193 0.81871 0.549113 0.953638C1.80249 2.03806 4.44611 4.28401 7.37382 6.52344C7.50333 6.62248 7.50324 6.81759 7.37382 6.91663C4.45077 9.15158 1.80367 11.4008 0.549113 12.4865ZM1.01112 12.7491C2.34203 11.6004 4.99852 9.35219 7.89735 7.14704C7.98547 7.08 8.10728 7.07983 8.19582 7.14619C8.74476 7.55792 9.29996 7.96575 9.85432 8.36224C9.89791 8.39339 9.94895 8.40896 9.99999 8.40896C10.051 8.40896 10.1021 8.39339 10.1457 8.36224C10.7 7.96575 11.2552 7.55792 11.8042 7.14619C11.8927 7.07983 12.0146 7.08 12.1026 7.14704C15.0015 9.35219 17.658 11.6004 18.9889 12.7491C19.1566 12.8938 19.0646 13.1689 18.8435 13.1835C17.2877 13.2862 14.2454 13.4402 9.99999 13.4402C5.75459 13.4402 2.71236 13.2861 1.15645 13.1835C0.935438 13.1689 0.843518 12.8938 1.01112 12.7491Z" fill="#0D4068"/>
</symbol>
</svg>
