<svg width="70" height="70" viewBox="0 0 70 70" fill="none" xmlns="http://www.w3.org/2000/svg">
<g filter="url(#filter0_d_72_11)">
<ellipse cx="34" cy="35.5" rx="13" ry="18.5" fill="white"/>
</g>
<path d="M35 49.5834C35.8264 49.5834 36.5196 49.3034 37.0796 48.7434C37.6396 48.1834 37.9187 47.4912 37.9167 46.6667C37.9148 45.8423 37.6348 45.15 37.0767 44.59C36.5187 44.03 35.8264 43.75 35 43.75C34.1737 43.75 33.4814 44.03 32.9234 44.59C32.3653 45.15 32.0853 45.8423 32.0834 46.6667C32.0814 47.4912 32.3614 48.1843 32.9234 48.7463C33.4853 49.3082 34.1775 49.5873 35 49.5834ZM35 37.9167C35.8264 37.9167 36.5196 37.6367 37.0796 37.0767C37.6396 36.5167 37.9187 35.8245 37.9167 35V23.3334C37.9167 22.507 37.6367 21.8148 37.0767 21.2567C36.5167 20.6987 35.8245 20.4187 35 20.4167C34.1756 20.4148 33.4834 20.6948 32.9234 21.2567C32.3634 21.8187 32.0834 22.5109 32.0834 23.3334V35C32.0834 35.8264 32.3634 36.5196 32.9234 37.0796C33.4834 37.6396 34.1756 37.9187 35 37.9167ZM35 64.1667C30.9653 64.1667 27.1737 63.4006 23.625 61.8684C20.0764 60.3362 16.9896 58.2585 14.3646 55.6355C11.7396 53.0124 9.66199 49.9256 8.13171 46.375C6.60143 42.8245 5.83532 39.0328 5.83338 35C5.83143 30.9673 6.59754 27.1756 8.13171 23.625C9.66588 20.0745 11.7435 16.9877 14.3646 14.3646C16.9857 11.7416 20.0725 9.66393 23.625 8.13171C27.1775 6.59949 30.9692 5.83337 35 5.83337C39.0309 5.83337 42.8225 6.59949 46.375 8.13171C49.9275 9.66393 53.0144 11.7416 55.6355 14.3646C58.2566 16.9877 60.3352 20.0745 61.8713 23.625C63.4074 27.1756 64.1725 30.9673 64.1667 35C64.1609 39.0328 63.3948 42.8245 61.8684 46.375C60.342 49.9256 58.2644 53.0124 55.6355 55.6355C53.0066 58.2585 49.9198 60.3371 46.375 61.8713C42.8303 63.4055 39.0387 64.1706 35 64.1667Z" fill="#D34444"/>
<defs>
<filter id="filter0_d_72_11" x="17" y="17" width="34" height="45" filterUnits="userSpaceOnUse" color-interpolation-filters="sRGB">
<feFlood flood-opacity="0" result="BackgroundImageFix"/>
<feColorMatrix in="SourceAlpha" type="matrix" values="0 0 0 0 0 0 0 0 0 0 0 0 0 0 0 0 0 0 127 0" result="hardAlpha"/>
<feOffset dy="4"/>
<feGaussianBlur stdDeviation="2"/>
<feComposite in2="hardAlpha" operator="out"/>
<feColorMatrix type="matrix" values="0 0 0 0 0 0 0 0 0 0 0 0 0 0 0 0 0 0 0.25 0"/>
<feBlend mode="normal" in2="BackgroundImageFix" result="effect1_dropShadow_72_11"/>
<feBlend mode="normal" in="SourceGraphic" in2="effect1_dropShadow_72_11" result="shape"/>
</filter>
</defs>
</svg>
