<svg width="16" height="16" viewBox="0 0 16 16" fill="none" xmlns="http://www.w3.org/2000/svg">
<circle cx="8" cy="8" r="6" fill="white"/>
<path d="M8 1C9.85664 1 11.6372 1.73755 12.9501 3.0504C14.2629 4.36325 15.0005 6.14385 15.0005 8.0005C15.0005 9.85715 14.2629 11.6378 12.9501 12.9506C11.6372 14.2634 9.85664 15.001 8 15.001C6.14335 15.001 4.36274 14.2634 3.0499 12.9506C1.73705 11.6378 0.999496 9.85715 0.999496 8.0005C0.999496 6.14385 1.73705 4.36325 3.0499 3.0504C4.36274 1.73755 6.14335 1 8 1ZM9.05 5.298C9.57 5.298 9.992 4.937 9.992 4.402C9.992 3.867 9.569 3.506 9.05 3.506C8.53 3.506 8.11 3.867 8.11 4.402C8.11 4.937 8.53 5.298 9.05 5.298ZM9.233 10.925C9.233 10.818 9.27 10.54 9.249 10.382L8.427 11.328C8.257 11.507 8.044 11.631 7.944 11.598C7.89863 11.5813 7.8607 11.549 7.83706 11.5068C7.81341 11.4646 7.80558 11.4154 7.815 11.368L9.185 7.04C9.297 6.491 8.989 5.99 8.336 5.926C7.647 5.926 6.633 6.625 6.016 7.512C6.016 7.618 5.996 7.882 6.017 8.04L6.838 7.093C7.008 6.916 7.206 6.791 7.306 6.825C7.35526 6.84268 7.39564 6.87898 7.41845 6.92609C7.44126 6.97321 7.44468 7.02739 7.428 7.077L6.07 11.384C5.913 11.888 6.21 12.382 6.93 12.494C7.99 12.494 8.616 11.812 9.234 10.925H9.233Z" fill="#2B86CD"/>
</svg>
