<svg width="24" height="57" viewBox="0 0 24 57" fill="none" xmlns="http://www.w3.org/2000/svg">
<path d="M22 35.625H2V13.0625C2 10.45 2.9 8.3125 4 8.3125H20C21.1 8.3125 22 10.45 22 13.0625V35.625Z" fill="#546E7A"/>
<path d="M20 32.0625H4C3.7 32.0625 3.5 31.5875 3.5 30.875V13.0625C3.5 12.35 3.7 11.875 4 11.875H20C20.3 11.875 20.5 12.35 20.5 13.0625V30.875C20.5 31.5875 20.3 32.0625 20 32.0625Z" fill="#64B5F6"/>
<path d="M20 48.6875H4C2.9 48.6875 2 46.55 2 43.9375V35.625H22V43.9375C22 46.55 21.1 48.6875 20 48.6875Z" fill="#78909C"/>
<path d="M13.5 40.375H19.5V42.75H13.5V40.375ZM4.5 40.375H10.5V42.75H4.5V40.375Z" fill="#37474F"/>
<path d="M9 41.5625C9 42.8688 8.35 43.9375 7.5 43.9375C6.65 43.9375 6 42.8688 6 41.5625H9Z" fill="#37474F"/>
</svg>
