<?xml version="1.0" encoding="utf-8"?>
<!DOCTYPE svg PUBLIC "-//W3C//DTD SVG 1.1//EN" "http://www.w3.org/Graphics/SVG/1.1/DTD/svg11.dtd">
<svg version="1.1" id="Layer_1" xmlns="http://www.w3.org/2000/svg" xmlns:xlink="http://www.w3.org/1999/xlink" x="0px" y="0px"
width="2257px" height="2257px" viewBox="0 0 2257 2257" enable-background="new 0 0 2257 2257" xml:space="preserve">
<rect x="0" y="0" width="2257" height="2257" fill="rgb(255,255,255)" /><g transform="translate(122,122)"><g transform="translate(610,0) scale(0.61,0.61)"><g transform="" style="fill: rgb(43, 134, 205);">
<rect width="100" height="100"/>
</g></g><g transform="translate(732,0) scale(0.61,0.61)"><g transform="" style="fill: rgb(43, 134, 205);">
<rect width="100" height="100"/>
</g></g><g transform="translate(793,0) scale(0.61,0.61)"><g transform="" style="fill: rgb(43, 134, 205);">
<rect width="100" height="100"/>
</g></g><g transform="translate(854,0) scale(0.61,0.61)"><g transform="" style="fill: rgb(43, 134, 205);">
<rect width="100" height="100"/>
</g></g><g transform="translate(915,0) scale(0.61,0.61)"><g transform="" style="fill: rgb(43, 134, 205);">
<rect width="100" height="100"/>
</g></g><g transform="translate(1098,0) scale(0.61,0.61)"><g transform="" style="fill: rgb(43, 134, 205);">
<rect width="100" height="100"/>
</g></g><g transform="translate(1159,0) scale(0.61,0.61)"><g transform="" style="fill: rgb(43, 134, 205);">
<rect width="100" height="100"/>
</g></g><g transform="translate(1220,0) scale(0.61,0.61)"><g transform="" style="fill: rgb(43, 134, 205);">
<rect width="100" height="100"/>
</g></g><g transform="translate(1403,0) scale(0.61,0.61)"><g transform="" style="fill: rgb(43, 134, 205);">
<rect width="100" height="100"/>
</g></g><g transform="translate(1464,0) scale(0.61,0.61)"><g transform="" style="fill: rgb(43, 134, 205);">
<rect width="100" height="100"/>
</g></g><g transform="translate(488,61) scale(0.61,0.61)"><g transform="" style="fill: rgb(43, 134, 205);">
<rect width="100" height="100"/>
</g></g><g transform="translate(610,61) scale(0.61,0.61)"><g transform="" style="fill: rgb(43, 134, 205);">
<rect width="100" height="100"/>
</g></g><g transform="translate(671,61) scale(0.61,0.61)"><g transform="" style="fill: rgb(43, 134, 205);">
<rect width="100" height="100"/>
</g></g><g transform="translate(732,61) scale(0.61,0.61)"><g transform="" style="fill: rgb(43, 134, 205);">
<rect width="100" height="100"/>
</g></g><g transform="translate(793,61) scale(0.61,0.61)"><g transform="" style="fill: rgb(43, 134, 205);">
<rect width="100" height="100"/>
</g></g><g transform="translate(1220,61) scale(0.61,0.61)"><g transform="" style="fill: rgb(43, 134, 205);">
<rect width="100" height="100"/>
</g></g><g transform="translate(1342,61) scale(0.61,0.61)"><g transform="" style="fill: rgb(43, 134, 205);">
<rect width="100" height="100"/>
</g></g><g transform="translate(1464,61) scale(0.61,0.61)"><g transform="" style="fill: rgb(43, 134, 205);">
<rect width="100" height="100"/>
</g></g><g transform="translate(549,122) scale(0.61,0.61)"><g transform="" style="fill: rgb(43, 134, 205);">
<rect width="100" height="100"/>
</g></g><g transform="translate(610,122) scale(0.61,0.61)"><g transform="" style="fill: rgb(43, 134, 205);">
<rect width="100" height="100"/>
</g></g><g transform="translate(732,122) scale(0.61,0.61)"><g transform="" style="fill: rgb(43, 134, 205);">
<rect width="100" height="100"/>
</g></g><g transform="translate(915,122) scale(0.61,0.61)"><g transform="" style="fill: rgb(43, 134, 205);">
<rect width="100" height="100"/>
</g></g><g transform="translate(976,122) scale(0.61,0.61)"><g transform="" style="fill: rgb(43, 134, 205);">
<rect width="100" height="100"/>
</g></g><g transform="translate(1037,122) scale(0.61,0.61)"><g transform="" style="fill: rgb(43, 134, 205);">
<rect width="100" height="100"/>
</g></g><g transform="translate(1220,122) scale(0.61,0.61)"><g transform="" style="fill: rgb(43, 134, 205);">
<rect width="100" height="100"/>
</g></g><g transform="translate(1281,122) scale(0.61,0.61)"><g transform="" style="fill: rgb(43, 134, 205);">
<rect width="100" height="100"/>
</g></g><g transform="translate(1342,122) scale(0.61,0.61)"><g transform="" style="fill: rgb(43, 134, 205);">
<rect width="100" height="100"/>
</g></g><g transform="translate(671,183) scale(0.61,0.61)"><g transform="" style="fill: rgb(43, 134, 205);">
<rect width="100" height="100"/>
</g></g><g transform="translate(732,183) scale(0.61,0.61)"><g transform="" style="fill: rgb(43, 134, 205);">
<rect width="100" height="100"/>
</g></g><g transform="translate(976,183) scale(0.61,0.61)"><g transform="" style="fill: rgb(43, 134, 205);">
<rect width="100" height="100"/>
</g></g><g transform="translate(1098,183) scale(0.61,0.61)"><g transform="" style="fill: rgb(43, 134, 205);">
<rect width="100" height="100"/>
</g></g><g transform="translate(1159,183) scale(0.61,0.61)"><g transform="" style="fill: rgb(43, 134, 205);">
<rect width="100" height="100"/>
</g></g><g transform="translate(1464,183) scale(0.61,0.61)"><g transform="" style="fill: rgb(43, 134, 205);">
<rect width="100" height="100"/>
</g></g><g transform="translate(549,244) scale(0.61,0.61)"><g transform="" style="fill: rgb(43, 134, 205);">
<rect width="100" height="100"/>
</g></g><g transform="translate(610,244) scale(0.61,0.61)"><g transform="" style="fill: rgb(43, 134, 205);">
<rect width="100" height="100"/>
</g></g><g transform="translate(854,244) scale(0.61,0.61)"><g transform="" style="fill: rgb(43, 134, 205);">
<rect width="100" height="100"/>
</g></g><g transform="translate(976,244) scale(0.61,0.61)"><g transform="" style="fill: rgb(43, 134, 205);">
<rect width="100" height="100"/>
</g></g><g transform="translate(1098,244) scale(0.61,0.61)"><g transform="" style="fill: rgb(43, 134, 205);">
<rect width="100" height="100"/>
</g></g><g transform="translate(1159,244) scale(0.61,0.61)"><g transform="" style="fill: rgb(43, 134, 205);">
<rect width="100" height="100"/>
</g></g><g transform="translate(1464,244) scale(0.61,0.61)"><g transform="" style="fill: rgb(43, 134, 205);">
<rect width="100" height="100"/>
</g></g><g transform="translate(488,305) scale(0.61,0.61)"><g transform="" style="fill: rgb(43, 134, 205);">
<rect width="100" height="100"/>
</g></g><g transform="translate(549,305) scale(0.61,0.61)"><g transform="" style="fill: rgb(43, 134, 205);">
<rect width="100" height="100"/>
</g></g><g transform="translate(854,305) scale(0.61,0.61)"><g transform="" style="fill: rgb(43, 134, 205);">
<rect width="100" height="100"/>
</g></g><g transform="translate(915,305) scale(0.61,0.61)"><g transform="" style="fill: rgb(43, 134, 205);">
<rect width="100" height="100"/>
</g></g><g transform="translate(976,305) scale(0.61,0.61)"><g transform="" style="fill: rgb(43, 134, 205);">
<rect width="100" height="100"/>
</g></g><g transform="translate(1037,305) scale(0.61,0.61)"><g transform="" style="fill: rgb(43, 134, 205);">
<rect width="100" height="100"/>
</g></g><g transform="translate(1220,305) scale(0.61,0.61)"><g transform="" style="fill: rgb(43, 134, 205);">
<rect width="100" height="100"/>
</g></g><g transform="translate(1281,305) scale(0.61,0.61)"><g transform="" style="fill: rgb(43, 134, 205);">
<rect width="100" height="100"/>
</g></g><g transform="translate(1342,305) scale(0.61,0.61)"><g transform="" style="fill: rgb(43, 134, 205);">
<rect width="100" height="100"/>
</g></g><g transform="translate(488,366) scale(0.61,0.61)"><g transform="" style="fill: rgb(43, 134, 205);">
<rect width="100" height="100"/>
</g></g><g transform="translate(610,366) scale(0.61,0.61)"><g transform="" style="fill: rgb(43, 134, 205);">
<rect width="100" height="100"/>
</g></g><g transform="translate(732,366) scale(0.61,0.61)"><g transform="" style="fill: rgb(43, 134, 205);">
<rect width="100" height="100"/>
</g></g><g transform="translate(854,366) scale(0.61,0.61)"><g transform="" style="fill: rgb(43, 134, 205);">
<rect width="100" height="100"/>
</g></g><g transform="translate(976,366) scale(0.61,0.61)"><g transform="" style="fill: rgb(43, 134, 205);">
<rect width="100" height="100"/>
</g></g><g transform="translate(1098,366) scale(0.61,0.61)"><g transform="" style="fill: rgb(43, 134, 205);">
<rect width="100" height="100"/>
</g></g><g transform="translate(1220,366) scale(0.61,0.61)"><g transform="" style="fill: rgb(43, 134, 205);">
<rect width="100" height="100"/>
</g></g><g transform="translate(1342,366) scale(0.61,0.61)"><g transform="" style="fill: rgb(43, 134, 205);">
<rect width="100" height="100"/>
</g></g><g transform="translate(1464,366) scale(0.61,0.61)"><g transform="" style="fill: rgb(43, 134, 205);">
<rect width="100" height="100"/>
</g></g><g transform="translate(488,427) scale(0.61,0.61)"><g transform="" style="fill: rgb(43, 134, 205);">
<rect width="100" height="100"/>
</g></g><g transform="translate(549,427) scale(0.61,0.61)"><g transform="" style="fill: rgb(43, 134, 205);">
<rect width="100" height="100"/>
</g></g><g transform="translate(610,427) scale(0.61,0.61)"><g transform="" style="fill: rgb(43, 134, 205);">
<rect width="100" height="100"/>
</g></g><g transform="translate(671,427) scale(0.61,0.61)"><g transform="" style="fill: rgb(43, 134, 205);">
<rect width="100" height="100"/>
</g></g><g transform="translate(732,427) scale(0.61,0.61)"><g transform="" style="fill: rgb(43, 134, 205);">
<rect width="100" height="100"/>
</g></g><g transform="translate(793,427) scale(0.61,0.61)"><g transform="" style="fill: rgb(43, 134, 205);">
<rect width="100" height="100"/>
</g></g><g transform="translate(976,427) scale(0.61,0.61)"><g transform="" style="fill: rgb(43, 134, 205);">
<rect width="100" height="100"/>
</g></g><g transform="translate(1159,427) scale(0.61,0.61)"><g transform="" style="fill: rgb(43, 134, 205);">
<rect width="100" height="100"/>
</g></g><g transform="translate(1220,427) scale(0.61,0.61)"><g transform="" style="fill: rgb(43, 134, 205);">
<rect width="100" height="100"/>
</g></g><g transform="translate(1281,427) scale(0.61,0.61)"><g transform="" style="fill: rgb(43, 134, 205);">
<rect width="100" height="100"/>
</g></g><g transform="translate(1342,427) scale(0.61,0.61)"><g transform="" style="fill: rgb(43, 134, 205);">
<rect width="100" height="100"/>
</g></g><g transform="translate(1403,427) scale(0.61,0.61)"><g transform="" style="fill: rgb(43, 134, 205);">
<rect width="100" height="100"/>
</g></g><g transform="translate(244,488) scale(0.61,0.61)"><g transform="" style="fill: rgb(43, 134, 205);">
<rect width="100" height="100"/>
</g></g><g transform="translate(305,488) scale(0.61,0.61)"><g transform="" style="fill: rgb(43, 134, 205);">
<rect width="100" height="100"/>
</g></g><g transform="translate(366,488) scale(0.61,0.61)"><g transform="" style="fill: rgb(43, 134, 205);">
<rect width="100" height="100"/>
</g></g><g transform="translate(427,488) scale(0.61,0.61)"><g transform="" style="fill: rgb(43, 134, 205);">
<rect width="100" height="100"/>
</g></g><g transform="translate(610,488) scale(0.61,0.61)"><g transform="" style="fill: rgb(43, 134, 205);">
<rect width="100" height="100"/>
</g></g><g transform="translate(793,488) scale(0.61,0.61)"><g transform="" style="fill: rgb(43, 134, 205);">
<rect width="100" height="100"/>
</g></g><g transform="translate(915,488) scale(0.61,0.61)"><g transform="" style="fill: rgb(43, 134, 205);">
<rect width="100" height="100"/>
</g></g><g transform="translate(1159,488) scale(0.61,0.61)"><g transform="" style="fill: rgb(43, 134, 205);">
<rect width="100" height="100"/>
</g></g><g transform="translate(1281,488) scale(0.61,0.61)"><g transform="" style="fill: rgb(43, 134, 205);">
<rect width="100" height="100"/>
</g></g><g transform="translate(1586,488) scale(0.61,0.61)"><g transform="" style="fill: rgb(43, 134, 205);">
<rect width="100" height="100"/>
</g></g><g transform="translate(1647,488) scale(0.61,0.61)"><g transform="" style="fill: rgb(43, 134, 205);">
<rect width="100" height="100"/>
</g></g><g transform="translate(1891,488) scale(0.61,0.61)"><g transform="" style="fill: rgb(43, 134, 205);">
<rect width="100" height="100"/>
</g></g><g transform="translate(0,549) scale(0.61,0.61)"><g transform="" style="fill: rgb(43, 134, 205);">
<rect width="100" height="100"/>
</g></g><g transform="translate(61,549) scale(0.61,0.61)"><g transform="" style="fill: rgb(43, 134, 205);">
<rect width="100" height="100"/>
</g></g><g transform="translate(183,549) scale(0.61,0.61)"><g transform="" style="fill: rgb(43, 134, 205);">
<rect width="100" height="100"/>
</g></g><g transform="translate(305,549) scale(0.61,0.61)"><g transform="" style="fill: rgb(43, 134, 205);">
<rect width="100" height="100"/>
</g></g><g transform="translate(427,549) scale(0.61,0.61)"><g transform="" style="fill: rgb(43, 134, 205);">
<rect width="100" height="100"/>
</g></g><g transform="translate(488,549) scale(0.61,0.61)"><g transform="" style="fill: rgb(43, 134, 205);">
<rect width="100" height="100"/>
</g></g><g transform="translate(549,549) scale(0.61,0.61)"><g transform="" style="fill: rgb(43, 134, 205);">
<rect width="100" height="100"/>
</g></g><g transform="translate(610,549) scale(0.61,0.61)"><g transform="" style="fill: rgb(43, 134, 205);">
<rect width="100" height="100"/>
</g></g><g transform="translate(671,549) scale(0.61,0.61)"><g transform="" style="fill: rgb(43, 134, 205);">
<rect width="100" height="100"/>
</g></g><g transform="translate(915,549) scale(0.61,0.61)"><g transform="" style="fill: rgb(43, 134, 205);">
<rect width="100" height="100"/>
</g></g><g transform="translate(1098,549) scale(0.61,0.61)"><g transform="" style="fill: rgb(43, 134, 205);">
<rect width="100" height="100"/>
</g></g><g transform="translate(1159,549) scale(0.61,0.61)"><g transform="" style="fill: rgb(43, 134, 205);">
<rect width="100" height="100"/>
</g></g><g transform="translate(1220,549) scale(0.61,0.61)"><g transform="" style="fill: rgb(43, 134, 205);">
<rect width="100" height="100"/>
</g></g><g transform="translate(1281,549) scale(0.61,0.61)"><g transform="" style="fill: rgb(43, 134, 205);">
<rect width="100" height="100"/>
</g></g><g transform="translate(1403,549) scale(0.61,0.61)"><g transform="" style="fill: rgb(43, 134, 205);">
<rect width="100" height="100"/>
</g></g><g transform="translate(1647,549) scale(0.61,0.61)"><g transform="" style="fill: rgb(43, 134, 205);">
<rect width="100" height="100"/>
</g></g><g transform="translate(1830,549) scale(0.61,0.61)"><g transform="" style="fill: rgb(43, 134, 205);">
<rect width="100" height="100"/>
</g></g><g transform="translate(0,610) scale(0.61,0.61)"><g transform="" style="fill: rgb(43, 134, 205);">
<rect width="100" height="100"/>
</g></g><g transform="translate(305,610) scale(0.61,0.61)"><g transform="" style="fill: rgb(43, 134, 205);">
<rect width="100" height="100"/>
</g></g><g transform="translate(366,610) scale(0.61,0.61)"><g transform="" style="fill: rgb(43, 134, 205);">
<rect width="100" height="100"/>
</g></g><g transform="translate(427,610) scale(0.61,0.61)"><g transform="" style="fill: rgb(43, 134, 205);">
<rect width="100" height="100"/>
</g></g><g transform="translate(610,610) scale(0.61,0.61)"><g transform="" style="fill: rgb(43, 134, 205);">
<rect width="100" height="100"/>
</g></g><g transform="translate(793,610) scale(0.61,0.61)"><g transform="" style="fill: rgb(43, 134, 205);">
<rect width="100" height="100"/>
</g></g><g transform="translate(854,610) scale(0.61,0.61)"><g transform="" style="fill: rgb(43, 134, 205);">
<rect width="100" height="100"/>
</g></g><g transform="translate(1098,610) scale(0.61,0.61)"><g transform="" style="fill: rgb(43, 134, 205);">
<rect width="100" height="100"/>
</g></g><g transform="translate(1159,610) scale(0.61,0.61)"><g transform="" style="fill: rgb(43, 134, 205);">
<rect width="100" height="100"/>
</g></g><g transform="translate(1403,610) scale(0.61,0.61)"><g transform="" style="fill: rgb(43, 134, 205);">
<rect width="100" height="100"/>
</g></g><g transform="translate(1464,610) scale(0.61,0.61)"><g transform="" style="fill: rgb(43, 134, 205);">
<rect width="100" height="100"/>
</g></g><g transform="translate(1525,610) scale(0.61,0.61)"><g transform="" style="fill: rgb(43, 134, 205);">
<rect width="100" height="100"/>
</g></g><g transform="translate(1586,610) scale(0.61,0.61)"><g transform="" style="fill: rgb(43, 134, 205);">
<rect width="100" height="100"/>
</g></g><g transform="translate(1647,610) scale(0.61,0.61)"><g transform="" style="fill: rgb(43, 134, 205);">
<rect width="100" height="100"/>
</g></g><g transform="translate(1708,610) scale(0.61,0.61)"><g transform="" style="fill: rgb(43, 134, 205);">
<rect width="100" height="100"/>
</g></g><g transform="translate(1769,610) scale(0.61,0.61)"><g transform="" style="fill: rgb(43, 134, 205);">
<rect width="100" height="100"/>
</g></g><g transform="translate(1891,610) scale(0.61,0.61)"><g transform="" style="fill: rgb(43, 134, 205);">
<rect width="100" height="100"/>
</g></g><g transform="translate(61,671) scale(0.61,0.61)"><g transform="" style="fill: rgb(43, 134, 205);">
<rect width="100" height="100"/>
</g></g><g transform="translate(244,671) scale(0.61,0.61)"><g transform="" style="fill: rgb(43, 134, 205);">
<rect width="100" height="100"/>
</g></g><g transform="translate(305,671) scale(0.61,0.61)"><g transform="" style="fill: rgb(43, 134, 205);">
<rect width="100" height="100"/>
</g></g><g transform="translate(427,671) scale(0.61,0.61)"><g transform="" style="fill: rgb(43, 134, 205);">
<rect width="100" height="100"/>
</g></g><g transform="translate(549,671) scale(0.61,0.61)"><g transform="" style="fill: rgb(43, 134, 205);">
<rect width="100" height="100"/>
</g></g><g transform="translate(671,671) scale(0.61,0.61)"><g transform="" style="fill: rgb(43, 134, 205);">
<rect width="100" height="100"/>
</g></g><g transform="translate(732,671) scale(0.61,0.61)"><g transform="" style="fill: rgb(43, 134, 205);">
<rect width="100" height="100"/>
</g></g><g transform="translate(793,671) scale(0.61,0.61)"><g transform="" style="fill: rgb(43, 134, 205);">
<rect width="100" height="100"/>
</g></g><g transform="translate(854,671) scale(0.61,0.61)"><g transform="" style="fill: rgb(43, 134, 205);">
<rect width="100" height="100"/>
</g></g><g transform="translate(915,671) scale(0.61,0.61)"><g transform="" style="fill: rgb(43, 134, 205);">
<rect width="100" height="100"/>
</g></g><g transform="translate(976,671) scale(0.61,0.61)"><g transform="" style="fill: rgb(43, 134, 205);">
<rect width="100" height="100"/>
</g></g><g transform="translate(1098,671) scale(0.61,0.61)"><g transform="" style="fill: rgb(43, 134, 205);">
<rect width="100" height="100"/>
</g></g><g transform="translate(1220,671) scale(0.61,0.61)"><g transform="" style="fill: rgb(43, 134, 205);">
<rect width="100" height="100"/>
</g></g><g transform="translate(1342,671) scale(0.61,0.61)"><g transform="" style="fill: rgb(43, 134, 205);">
<rect width="100" height="100"/>
</g></g><g transform="translate(1464,671) scale(0.61,0.61)"><g transform="" style="fill: rgb(43, 134, 205);">
<rect width="100" height="100"/>
</g></g><g transform="translate(1586,671) scale(0.61,0.61)"><g transform="" style="fill: rgb(43, 134, 205);">
<rect width="100" height="100"/>
</g></g><g transform="translate(1708,671) scale(0.61,0.61)"><g transform="" style="fill: rgb(43, 134, 205);">
<rect width="100" height="100"/>
</g></g><g transform="translate(1891,671) scale(0.61,0.61)"><g transform="" style="fill: rgb(43, 134, 205);">
<rect width="100" height="100"/>
</g></g><g transform="translate(1952,671) scale(0.61,0.61)"><g transform="" style="fill: rgb(43, 134, 205);">
<rect width="100" height="100"/>
</g></g><g transform="translate(0,732) scale(0.61,0.61)"><g transform="" style="fill: rgb(43, 134, 205);">
<rect width="100" height="100"/>
</g></g><g transform="translate(122,732) scale(0.61,0.61)"><g transform="" style="fill: rgb(43, 134, 205);">
<rect width="100" height="100"/>
</g></g><g transform="translate(183,732) scale(0.61,0.61)"><g transform="" style="fill: rgb(43, 134, 205);">
<rect width="100" height="100"/>
</g></g><g transform="translate(244,732) scale(0.61,0.61)"><g transform="" style="fill: rgb(43, 134, 205);">
<rect width="100" height="100"/>
</g></g><g transform="translate(366,732) scale(0.61,0.61)"><g transform="" style="fill: rgb(43, 134, 205);">
<rect width="100" height="100"/>
</g></g><g transform="translate(427,732) scale(0.61,0.61)"><g transform="" style="fill: rgb(43, 134, 205);">
<rect width="100" height="100"/>
</g></g><g transform="translate(549,732) scale(0.61,0.61)"><g transform="" style="fill: rgb(43, 134, 205);">
<rect width="100" height="100"/>
</g></g><g transform="translate(671,732) scale(0.61,0.61)"><g transform="" style="fill: rgb(43, 134, 205);">
<rect width="100" height="100"/>
</g></g><g transform="translate(793,732) scale(0.61,0.61)"><g transform="" style="fill: rgb(43, 134, 205);">
<rect width="100" height="100"/>
</g></g><g transform="translate(915,732) scale(0.61,0.61)"><g transform="" style="fill: rgb(43, 134, 205);">
<rect width="100" height="100"/>
</g></g><g transform="translate(1037,732) scale(0.61,0.61)"><g transform="" style="fill: rgb(43, 134, 205);">
<rect width="100" height="100"/>
</g></g><g transform="translate(1098,732) scale(0.61,0.61)"><g transform="" style="fill: rgb(43, 134, 205);">
<rect width="100" height="100"/>
</g></g><g transform="translate(1220,732) scale(0.61,0.61)"><g transform="" style="fill: rgb(43, 134, 205);">
<rect width="100" height="100"/>
</g></g><g transform="translate(1342,732) scale(0.61,0.61)"><g transform="" style="fill: rgb(43, 134, 205);">
<rect width="100" height="100"/>
</g></g><g transform="translate(1403,732) scale(0.61,0.61)"><g transform="" style="fill: rgb(43, 134, 205);">
<rect width="100" height="100"/>
</g></g><g transform="translate(1586,732) scale(0.61,0.61)"><g transform="" style="fill: rgb(43, 134, 205);">
<rect width="100" height="100"/>
</g></g><g transform="translate(1769,732) scale(0.61,0.61)"><g transform="" style="fill: rgb(43, 134, 205);">
<rect width="100" height="100"/>
</g></g><g transform="translate(1952,732) scale(0.61,0.61)"><g transform="" style="fill: rgb(43, 134, 205);">
<rect width="100" height="100"/>
</g></g><g transform="translate(122,793) scale(0.61,0.61)"><g transform="" style="fill: rgb(43, 134, 205);">
<rect width="100" height="100"/>
</g></g><g transform="translate(183,793) scale(0.61,0.61)"><g transform="" style="fill: rgb(43, 134, 205);">
<rect width="100" height="100"/>
</g></g><g transform="translate(305,793) scale(0.61,0.61)"><g transform="" style="fill: rgb(43, 134, 205);">
<rect width="100" height="100"/>
</g></g><g transform="translate(488,793) scale(0.61,0.61)"><g transform="" style="fill: rgb(43, 134, 205);">
<rect width="100" height="100"/>
</g></g><g transform="translate(1525,793) scale(0.61,0.61)"><g transform="" style="fill: rgb(43, 134, 205);">
<rect width="100" height="100"/>
</g></g><g transform="translate(1647,793) scale(0.61,0.61)"><g transform="" style="fill: rgb(43, 134, 205);">
<rect width="100" height="100"/>
</g></g><g transform="translate(1708,793) scale(0.61,0.61)"><g transform="" style="fill: rgb(43, 134, 205);">
<rect width="100" height="100"/>
</g></g><g transform="translate(1769,793) scale(0.61,0.61)"><g transform="" style="fill: rgb(43, 134, 205);">
<rect width="100" height="100"/>
</g></g><g transform="translate(1830,793) scale(0.61,0.61)"><g transform="" style="fill: rgb(43, 134, 205);">
<rect width="100" height="100"/>
</g></g><g transform="translate(1891,793) scale(0.61,0.61)"><g transform="" style="fill: rgb(43, 134, 205);">
<rect width="100" height="100"/>
</g></g><g transform="translate(0,854) scale(0.61,0.61)"><g transform="" style="fill: rgb(43, 134, 205);">
<rect width="100" height="100"/>
</g></g><g transform="translate(61,854) scale(0.61,0.61)"><g transform="" style="fill: rgb(43, 134, 205);">
<rect width="100" height="100"/>
</g></g><g transform="translate(183,854) scale(0.61,0.61)"><g transform="" style="fill: rgb(43, 134, 205);">
<rect width="100" height="100"/>
</g></g><g transform="translate(244,854) scale(0.61,0.61)"><g transform="" style="fill: rgb(43, 134, 205);">
<rect width="100" height="100"/>
</g></g><g transform="translate(305,854) scale(0.61,0.61)"><g transform="" style="fill: rgb(43, 134, 205);">
<rect width="100" height="100"/>
</g></g><g transform="translate(366,854) scale(0.61,0.61)"><g transform="" style="fill: rgb(43, 134, 205);">
<rect width="100" height="100"/>
</g></g><g transform="translate(1464,854) scale(0.61,0.61)"><g transform="" style="fill: rgb(43, 134, 205);">
<rect width="100" height="100"/>
</g></g><g transform="translate(1525,854) scale(0.61,0.61)"><g transform="" style="fill: rgb(43, 134, 205);">
<rect width="100" height="100"/>
</g></g><g transform="translate(1586,854) scale(0.61,0.61)"><g transform="" style="fill: rgb(43, 134, 205);">
<rect width="100" height="100"/>
</g></g><g transform="translate(1647,854) scale(0.61,0.61)"><g transform="" style="fill: rgb(43, 134, 205);">
<rect width="100" height="100"/>
</g></g><g transform="translate(1891,854) scale(0.61,0.61)"><g transform="" style="fill: rgb(43, 134, 205);">
<rect width="100" height="100"/>
</g></g><g transform="translate(122,915) scale(0.61,0.61)"><g transform="" style="fill: rgb(43, 134, 205);">
<rect width="100" height="100"/>
</g></g><g transform="translate(244,915) scale(0.61,0.61)"><g transform="" style="fill: rgb(43, 134, 205);">
<rect width="100" height="100"/>
</g></g><g transform="translate(305,915) scale(0.61,0.61)"><g transform="" style="fill: rgb(43, 134, 205);">
<rect width="100" height="100"/>
</g></g><g transform="translate(427,915) scale(0.61,0.61)"><g transform="" style="fill: rgb(43, 134, 205);">
<rect width="100" height="100"/>
</g></g><g transform="translate(488,915) scale(0.61,0.61)"><g transform="" style="fill: rgb(43, 134, 205);">
<rect width="100" height="100"/>
</g></g><g transform="translate(1525,915) scale(0.61,0.61)"><g transform="" style="fill: rgb(43, 134, 205);">
<rect width="100" height="100"/>
</g></g><g transform="translate(1586,915) scale(0.61,0.61)"><g transform="" style="fill: rgb(43, 134, 205);">
<rect width="100" height="100"/>
</g></g><g transform="translate(1769,915) scale(0.61,0.61)"><g transform="" style="fill: rgb(43, 134, 205);">
<rect width="100" height="100"/>
</g></g><g transform="translate(0,976) scale(0.61,0.61)"><g transform="" style="fill: rgb(43, 134, 205);">
<rect width="100" height="100"/>
</g></g><g transform="translate(61,976) scale(0.61,0.61)"><g transform="" style="fill: rgb(43, 134, 205);">
<rect width="100" height="100"/>
</g></g><g transform="translate(183,976) scale(0.61,0.61)"><g transform="" style="fill: rgb(43, 134, 205);">
<rect width="100" height="100"/>
</g></g><g transform="translate(305,976) scale(0.61,0.61)"><g transform="" style="fill: rgb(43, 134, 205);">
<rect width="100" height="100"/>
</g></g><g transform="translate(366,976) scale(0.61,0.61)"><g transform="" style="fill: rgb(43, 134, 205);">
<rect width="100" height="100"/>
</g></g><g transform="translate(427,976) scale(0.61,0.61)"><g transform="" style="fill: rgb(43, 134, 205);">
<rect width="100" height="100"/>
</g></g><g transform="translate(1586,976) scale(0.61,0.61)"><g transform="" style="fill: rgb(43, 134, 205);">
<rect width="100" height="100"/>
</g></g><g transform="translate(1708,976) scale(0.61,0.61)"><g transform="" style="fill: rgb(43, 134, 205);">
<rect width="100" height="100"/>
</g></g><g transform="translate(0,1037) scale(0.61,0.61)"><g transform="" style="fill: rgb(43, 134, 205);">
<rect width="100" height="100"/>
</g></g><g transform="translate(61,1037) scale(0.61,0.61)"><g transform="" style="fill: rgb(43, 134, 205);">
<rect width="100" height="100"/>
</g></g><g transform="translate(122,1037) scale(0.61,0.61)"><g transform="" style="fill: rgb(43, 134, 205);">
<rect width="100" height="100"/>
</g></g><g transform="translate(427,1037) scale(0.61,0.61)"><g transform="" style="fill: rgb(43, 134, 205);">
<rect width="100" height="100"/>
</g></g><g transform="translate(1464,1037) scale(0.61,0.61)"><g transform="" style="fill: rgb(43, 134, 205);">
<rect width="100" height="100"/>
</g></g><g transform="translate(1647,1037) scale(0.61,0.61)"><g transform="" style="fill: rgb(43, 134, 205);">
<rect width="100" height="100"/>
</g></g><g transform="translate(0,1098) scale(0.61,0.61)"><g transform="" style="fill: rgb(43, 134, 205);">
<rect width="100" height="100"/>
</g></g><g transform="translate(183,1098) scale(0.61,0.61)"><g transform="" style="fill: rgb(43, 134, 205);">
<rect width="100" height="100"/>
</g></g><g transform="translate(244,1098) scale(0.61,0.61)"><g transform="" style="fill: rgb(43, 134, 205);">
<rect width="100" height="100"/>
</g></g><g transform="translate(366,1098) scale(0.61,0.61)"><g transform="" style="fill: rgb(43, 134, 205);">
<rect width="100" height="100"/>
</g></g><g transform="translate(427,1098) scale(0.61,0.61)"><g transform="" style="fill: rgb(43, 134, 205);">
<rect width="100" height="100"/>
</g></g><g transform="translate(1464,1098) scale(0.61,0.61)"><g transform="" style="fill: rgb(43, 134, 205);">
<rect width="100" height="100"/>
</g></g><g transform="translate(1708,1098) scale(0.61,0.61)"><g transform="" style="fill: rgb(43, 134, 205);">
<rect width="100" height="100"/>
</g></g><g transform="translate(1769,1098) scale(0.61,0.61)"><g transform="" style="fill: rgb(43, 134, 205);">
<rect width="100" height="100"/>
</g></g><g transform="translate(1891,1098) scale(0.61,0.61)"><g transform="" style="fill: rgb(43, 134, 205);">
<rect width="100" height="100"/>
</g></g><g transform="translate(61,1159) scale(0.61,0.61)"><g transform="" style="fill: rgb(43, 134, 205);">
<rect width="100" height="100"/>
</g></g><g transform="translate(305,1159) scale(0.61,0.61)"><g transform="" style="fill: rgb(43, 134, 205);">
<rect width="100" height="100"/>
</g></g><g transform="translate(427,1159) scale(0.61,0.61)"><g transform="" style="fill: rgb(43, 134, 205);">
<rect width="100" height="100"/>
</g></g><g transform="translate(488,1159) scale(0.61,0.61)"><g transform="" style="fill: rgb(43, 134, 205);">
<rect width="100" height="100"/>
</g></g><g transform="translate(1525,1159) scale(0.61,0.61)"><g transform="" style="fill: rgb(43, 134, 205);">
<rect width="100" height="100"/>
</g></g><g transform="translate(1647,1159) scale(0.61,0.61)"><g transform="" style="fill: rgb(43, 134, 205);">
<rect width="100" height="100"/>
</g></g><g transform="translate(1952,1159) scale(0.61,0.61)"><g transform="" style="fill: rgb(43, 134, 205);">
<rect width="100" height="100"/>
</g></g><g transform="translate(122,1220) scale(0.61,0.61)"><g transform="" style="fill: rgb(43, 134, 205);">
<rect width="100" height="100"/>
</g></g><g transform="translate(183,1220) scale(0.61,0.61)"><g transform="" style="fill: rgb(43, 134, 205);">
<rect width="100" height="100"/>
</g></g><g transform="translate(305,1220) scale(0.61,0.61)"><g transform="" style="fill: rgb(43, 134, 205);">
<rect width="100" height="100"/>
</g></g><g transform="translate(366,1220) scale(0.61,0.61)"><g transform="" style="fill: rgb(43, 134, 205);">
<rect width="100" height="100"/>
</g></g><g transform="translate(427,1220) scale(0.61,0.61)"><g transform="" style="fill: rgb(43, 134, 205);">
<rect width="100" height="100"/>
</g></g><g transform="translate(488,1220) scale(0.61,0.61)"><g transform="" style="fill: rgb(43, 134, 205);">
<rect width="100" height="100"/>
</g></g><g transform="translate(549,1220) scale(0.61,0.61)"><g transform="" style="fill: rgb(43, 134, 205);">
<rect width="100" height="100"/>
</g></g><g transform="translate(610,1220) scale(0.61,0.61)"><g transform="" style="fill: rgb(43, 134, 205);">
<rect width="100" height="100"/>
</g></g><g transform="translate(671,1220) scale(0.61,0.61)"><g transform="" style="fill: rgb(43, 134, 205);">
<rect width="100" height="100"/>
</g></g><g transform="translate(732,1220) scale(0.61,0.61)"><g transform="" style="fill: rgb(43, 134, 205);">
<rect width="100" height="100"/>
</g></g><g transform="translate(793,1220) scale(0.61,0.61)"><g transform="" style="fill: rgb(43, 134, 205);">
<rect width="100" height="100"/>
</g></g><g transform="translate(915,1220) scale(0.61,0.61)"><g transform="" style="fill: rgb(43, 134, 205);">
<rect width="100" height="100"/>
</g></g><g transform="translate(976,1220) scale(0.61,0.61)"><g transform="" style="fill: rgb(43, 134, 205);">
<rect width="100" height="100"/>
</g></g><g transform="translate(1220,1220) scale(0.61,0.61)"><g transform="" style="fill: rgb(43, 134, 205);">
<rect width="100" height="100"/>
</g></g><g transform="translate(1281,1220) scale(0.61,0.61)"><g transform="" style="fill: rgb(43, 134, 205);">
<rect width="100" height="100"/>
</g></g><g transform="translate(1464,1220) scale(0.61,0.61)"><g transform="" style="fill: rgb(43, 134, 205);">
<rect width="100" height="100"/>
</g></g><g transform="translate(1525,1220) scale(0.61,0.61)"><g transform="" style="fill: rgb(43, 134, 205);">
<rect width="100" height="100"/>
</g></g><g transform="translate(1586,1220) scale(0.61,0.61)"><g transform="" style="fill: rgb(43, 134, 205);">
<rect width="100" height="100"/>
</g></g><g transform="translate(1708,1220) scale(0.61,0.61)"><g transform="" style="fill: rgb(43, 134, 205);">
<rect width="100" height="100"/>
</g></g><g transform="translate(1769,1220) scale(0.61,0.61)"><g transform="" style="fill: rgb(43, 134, 205);">
<rect width="100" height="100"/>
</g></g><g transform="translate(1891,1220) scale(0.61,0.61)"><g transform="" style="fill: rgb(43, 134, 205);">
<rect width="100" height="100"/>
</g></g><g transform="translate(1952,1220) scale(0.61,0.61)"><g transform="" style="fill: rgb(43, 134, 205);">
<rect width="100" height="100"/>
</g></g><g transform="translate(0,1281) scale(0.61,0.61)"><g transform="" style="fill: rgb(43, 134, 205);">
<rect width="100" height="100"/>
</g></g><g transform="translate(61,1281) scale(0.61,0.61)"><g transform="" style="fill: rgb(43, 134, 205);">
<rect width="100" height="100"/>
</g></g><g transform="translate(122,1281) scale(0.61,0.61)"><g transform="" style="fill: rgb(43, 134, 205);">
<rect width="100" height="100"/>
</g></g><g transform="translate(183,1281) scale(0.61,0.61)"><g transform="" style="fill: rgb(43, 134, 205);">
<rect width="100" height="100"/>
</g></g><g transform="translate(244,1281) scale(0.61,0.61)"><g transform="" style="fill: rgb(43, 134, 205);">
<rect width="100" height="100"/>
</g></g><g transform="translate(305,1281) scale(0.61,0.61)"><g transform="" style="fill: rgb(43, 134, 205);">
<rect width="100" height="100"/>
</g></g><g transform="translate(427,1281) scale(0.61,0.61)"><g transform="" style="fill: rgb(43, 134, 205);">
<rect width="100" height="100"/>
</g></g><g transform="translate(488,1281) scale(0.61,0.61)"><g transform="" style="fill: rgb(43, 134, 205);">
<rect width="100" height="100"/>
</g></g><g transform="translate(671,1281) scale(0.61,0.61)"><g transform="" style="fill: rgb(43, 134, 205);">
<rect width="100" height="100"/>
</g></g><g transform="translate(854,1281) scale(0.61,0.61)"><g transform="" style="fill: rgb(43, 134, 205);">
<rect width="100" height="100"/>
</g></g><g transform="translate(976,1281) scale(0.61,0.61)"><g transform="" style="fill: rgb(43, 134, 205);">
<rect width="100" height="100"/>
</g></g><g transform="translate(1159,1281) scale(0.61,0.61)"><g transform="" style="fill: rgb(43, 134, 205);">
<rect width="100" height="100"/>
</g></g><g transform="translate(1220,1281) scale(0.61,0.61)"><g transform="" style="fill: rgb(43, 134, 205);">
<rect width="100" height="100"/>
</g></g><g transform="translate(1281,1281) scale(0.61,0.61)"><g transform="" style="fill: rgb(43, 134, 205);">
<rect width="100" height="100"/>
</g></g><g transform="translate(1586,1281) scale(0.61,0.61)"><g transform="" style="fill: rgb(43, 134, 205);">
<rect width="100" height="100"/>
</g></g><g transform="translate(1769,1281) scale(0.61,0.61)"><g transform="" style="fill: rgb(43, 134, 205);">
<rect width="100" height="100"/>
</g></g><g transform="translate(1830,1281) scale(0.61,0.61)"><g transform="" style="fill: rgb(43, 134, 205);">
<rect width="100" height="100"/>
</g></g><g transform="translate(122,1342) scale(0.61,0.61)"><g transform="" style="fill: rgb(43, 134, 205);">
<rect width="100" height="100"/>
</g></g><g transform="translate(183,1342) scale(0.61,0.61)"><g transform="" style="fill: rgb(43, 134, 205);">
<rect width="100" height="100"/>
</g></g><g transform="translate(244,1342) scale(0.61,0.61)"><g transform="" style="fill: rgb(43, 134, 205);">
<rect width="100" height="100"/>
</g></g><g transform="translate(305,1342) scale(0.61,0.61)"><g transform="" style="fill: rgb(43, 134, 205);">
<rect width="100" height="100"/>
</g></g><g transform="translate(366,1342) scale(0.61,0.61)"><g transform="" style="fill: rgb(43, 134, 205);">
<rect width="100" height="100"/>
</g></g><g transform="translate(610,1342) scale(0.61,0.61)"><g transform="" style="fill: rgb(43, 134, 205);">
<rect width="100" height="100"/>
</g></g><g transform="translate(732,1342) scale(0.61,0.61)"><g transform="" style="fill: rgb(43, 134, 205);">
<rect width="100" height="100"/>
</g></g><g transform="translate(793,1342) scale(0.61,0.61)"><g transform="" style="fill: rgb(43, 134, 205);">
<rect width="100" height="100"/>
</g></g><g transform="translate(976,1342) scale(0.61,0.61)"><g transform="" style="fill: rgb(43, 134, 205);">
<rect width="100" height="100"/>
</g></g><g transform="translate(1159,1342) scale(0.61,0.61)"><g transform="" style="fill: rgb(43, 134, 205);">
<rect width="100" height="100"/>
</g></g><g transform="translate(1830,1342) scale(0.61,0.61)"><g transform="" style="fill: rgb(43, 134, 205);">
<rect width="100" height="100"/>
</g></g><g transform="translate(1891,1342) scale(0.61,0.61)"><g transform="" style="fill: rgb(43, 134, 205);">
<rect width="100" height="100"/>
</g></g><g transform="translate(122,1403) scale(0.61,0.61)"><g transform="" style="fill: rgb(43, 134, 205);">
<rect width="100" height="100"/>
</g></g><g transform="translate(183,1403) scale(0.61,0.61)"><g transform="" style="fill: rgb(43, 134, 205);">
<rect width="100" height="100"/>
</g></g><g transform="translate(244,1403) scale(0.61,0.61)"><g transform="" style="fill: rgb(43, 134, 205);">
<rect width="100" height="100"/>
</g></g><g transform="translate(305,1403) scale(0.61,0.61)"><g transform="" style="fill: rgb(43, 134, 205);">
<rect width="100" height="100"/>
</g></g><g transform="translate(427,1403) scale(0.61,0.61)"><g transform="" style="fill: rgb(43, 134, 205);">
<rect width="100" height="100"/>
</g></g><g transform="translate(488,1403) scale(0.61,0.61)"><g transform="" style="fill: rgb(43, 134, 205);">
<rect width="100" height="100"/>
</g></g><g transform="translate(549,1403) scale(0.61,0.61)"><g transform="" style="fill: rgb(43, 134, 205);">
<rect width="100" height="100"/>
</g></g><g transform="translate(671,1403) scale(0.61,0.61)"><g transform="" style="fill: rgb(43, 134, 205);">
<rect width="100" height="100"/>
</g></g><g transform="translate(732,1403) scale(0.61,0.61)"><g transform="" style="fill: rgb(43, 134, 205);">
<rect width="100" height="100"/>
</g></g><g transform="translate(793,1403) scale(0.61,0.61)"><g transform="" style="fill: rgb(43, 134, 205);">
<rect width="100" height="100"/>
</g></g><g transform="translate(915,1403) scale(0.61,0.61)"><g transform="" style="fill: rgb(43, 134, 205);">
<rect width="100" height="100"/>
</g></g><g transform="translate(976,1403) scale(0.61,0.61)"><g transform="" style="fill: rgb(43, 134, 205);">
<rect width="100" height="100"/>
</g></g><g transform="translate(1098,1403) scale(0.61,0.61)"><g transform="" style="fill: rgb(43, 134, 205);">
<rect width="100" height="100"/>
</g></g><g transform="translate(1159,1403) scale(0.61,0.61)"><g transform="" style="fill: rgb(43, 134, 205);">
<rect width="100" height="100"/>
</g></g><g transform="translate(1281,1403) scale(0.61,0.61)"><g transform="" style="fill: rgb(43, 134, 205);">
<rect width="100" height="100"/>
</g></g><g transform="translate(1342,1403) scale(0.61,0.61)"><g transform="" style="fill: rgb(43, 134, 205);">
<rect width="100" height="100"/>
</g></g><g transform="translate(1464,1403) scale(0.61,0.61)"><g transform="" style="fill: rgb(43, 134, 205);">
<rect width="100" height="100"/>
</g></g><g transform="translate(1708,1403) scale(0.61,0.61)"><g transform="" style="fill: rgb(43, 134, 205);">
<rect width="100" height="100"/>
</g></g><g transform="translate(1891,1403) scale(0.61,0.61)"><g transform="" style="fill: rgb(43, 134, 205);">
<rect width="100" height="100"/>
</g></g><g transform="translate(0,1464) scale(0.61,0.61)"><g transform="" style="fill: rgb(43, 134, 205);">
<rect width="100" height="100"/>
</g></g><g transform="translate(61,1464) scale(0.61,0.61)"><g transform="" style="fill: rgb(43, 134, 205);">
<rect width="100" height="100"/>
</g></g><g transform="translate(366,1464) scale(0.61,0.61)"><g transform="" style="fill: rgb(43, 134, 205);">
<rect width="100" height="100"/>
</g></g><g transform="translate(427,1464) scale(0.61,0.61)"><g transform="" style="fill: rgb(43, 134, 205);">
<rect width="100" height="100"/>
</g></g><g transform="translate(488,1464) scale(0.61,0.61)"><g transform="" style="fill: rgb(43, 134, 205);">
<rect width="100" height="100"/>
</g></g><g transform="translate(610,1464) scale(0.61,0.61)"><g transform="" style="fill: rgb(43, 134, 205);">
<rect width="100" height="100"/>
</g></g><g transform="translate(732,1464) scale(0.61,0.61)"><g transform="" style="fill: rgb(43, 134, 205);">
<rect width="100" height="100"/>
</g></g><g transform="translate(854,1464) scale(0.61,0.61)"><g transform="" style="fill: rgb(43, 134, 205);">
<rect width="100" height="100"/>
</g></g><g transform="translate(1037,1464) scale(0.61,0.61)"><g transform="" style="fill: rgb(43, 134, 205);">
<rect width="100" height="100"/>
</g></g><g transform="translate(1098,1464) scale(0.61,0.61)"><g transform="" style="fill: rgb(43, 134, 205);">
<rect width="100" height="100"/>
</g></g><g transform="translate(1281,1464) scale(0.61,0.61)"><g transform="" style="fill: rgb(43, 134, 205);">
<rect width="100" height="100"/>
</g></g><g transform="translate(1342,1464) scale(0.61,0.61)"><g transform="" style="fill: rgb(43, 134, 205);">
<rect width="100" height="100"/>
</g></g><g transform="translate(1403,1464) scale(0.61,0.61)"><g transform="" style="fill: rgb(43, 134, 205);">
<rect width="100" height="100"/>
</g></g><g transform="translate(1464,1464) scale(0.61,0.61)"><g transform="" style="fill: rgb(43, 134, 205);">
<rect width="100" height="100"/>
</g></g><g transform="translate(1525,1464) scale(0.61,0.61)"><g transform="" style="fill: rgb(43, 134, 205);">
<rect width="100" height="100"/>
</g></g><g transform="translate(1586,1464) scale(0.61,0.61)"><g transform="" style="fill: rgb(43, 134, 205);">
<rect width="100" height="100"/>
</g></g><g transform="translate(1647,1464) scale(0.61,0.61)"><g transform="" style="fill: rgb(43, 134, 205);">
<rect width="100" height="100"/>
</g></g><g transform="translate(1708,1464) scale(0.61,0.61)"><g transform="" style="fill: rgb(43, 134, 205);">
<rect width="100" height="100"/>
</g></g><g transform="translate(1769,1464) scale(0.61,0.61)"><g transform="" style="fill: rgb(43, 134, 205);">
<rect width="100" height="100"/>
</g></g><g transform="translate(488,1525) scale(0.61,0.61)"><g transform="" style="fill: rgb(43, 134, 205);">
<rect width="100" height="100"/>
</g></g><g transform="translate(549,1525) scale(0.61,0.61)"><g transform="" style="fill: rgb(43, 134, 205);">
<rect width="100" height="100"/>
</g></g><g transform="translate(610,1525) scale(0.61,0.61)"><g transform="" style="fill: rgb(43, 134, 205);">
<rect width="100" height="100"/>
</g></g><g transform="translate(671,1525) scale(0.61,0.61)"><g transform="" style="fill: rgb(43, 134, 205);">
<rect width="100" height="100"/>
</g></g><g transform="translate(793,1525) scale(0.61,0.61)"><g transform="" style="fill: rgb(43, 134, 205);">
<rect width="100" height="100"/>
</g></g><g transform="translate(854,1525) scale(0.61,0.61)"><g transform="" style="fill: rgb(43, 134, 205);">
<rect width="100" height="100"/>
</g></g><g transform="translate(1159,1525) scale(0.61,0.61)"><g transform="" style="fill: rgb(43, 134, 205);">
<rect width="100" height="100"/>
</g></g><g transform="translate(1220,1525) scale(0.61,0.61)"><g transform="" style="fill: rgb(43, 134, 205);">
<rect width="100" height="100"/>
</g></g><g transform="translate(1342,1525) scale(0.61,0.61)"><g transform="" style="fill: rgb(43, 134, 205);">
<rect width="100" height="100"/>
</g></g><g transform="translate(1464,1525) scale(0.61,0.61)"><g transform="" style="fill: rgb(43, 134, 205);">
<rect width="100" height="100"/>
</g></g><g transform="translate(1708,1525) scale(0.61,0.61)"><g transform="" style="fill: rgb(43, 134, 205);">
<rect width="100" height="100"/>
</g></g><g transform="translate(1830,1525) scale(0.61,0.61)"><g transform="" style="fill: rgb(43, 134, 205);">
<rect width="100" height="100"/>
</g></g><g transform="translate(488,1586) scale(0.61,0.61)"><g transform="" style="fill: rgb(43, 134, 205);">
<rect width="100" height="100"/>
</g></g><g transform="translate(549,1586) scale(0.61,0.61)"><g transform="" style="fill: rgb(43, 134, 205);">
<rect width="100" height="100"/>
</g></g><g transform="translate(610,1586) scale(0.61,0.61)"><g transform="" style="fill: rgb(43, 134, 205);">
<rect width="100" height="100"/>
</g></g><g transform="translate(854,1586) scale(0.61,0.61)"><g transform="" style="fill: rgb(43, 134, 205);">
<rect width="100" height="100"/>
</g></g><g transform="translate(915,1586) scale(0.61,0.61)"><g transform="" style="fill: rgb(43, 134, 205);">
<rect width="100" height="100"/>
</g></g><g transform="translate(1037,1586) scale(0.61,0.61)"><g transform="" style="fill: rgb(43, 134, 205);">
<rect width="100" height="100"/>
</g></g><g transform="translate(1159,1586) scale(0.61,0.61)"><g transform="" style="fill: rgb(43, 134, 205);">
<rect width="100" height="100"/>
</g></g><g transform="translate(1281,1586) scale(0.61,0.61)"><g transform="" style="fill: rgb(43, 134, 205);">
<rect width="100" height="100"/>
</g></g><g transform="translate(1342,1586) scale(0.61,0.61)"><g transform="" style="fill: rgb(43, 134, 205);">
<rect width="100" height="100"/>
</g></g><g transform="translate(1464,1586) scale(0.61,0.61)"><g transform="" style="fill: rgb(43, 134, 205);">
<rect width="100" height="100"/>
</g></g><g transform="translate(1586,1586) scale(0.61,0.61)"><g transform="" style="fill: rgb(43, 134, 205);">
<rect width="100" height="100"/>
</g></g><g transform="translate(1708,1586) scale(0.61,0.61)"><g transform="" style="fill: rgb(43, 134, 205);">
<rect width="100" height="100"/>
</g></g><g transform="translate(1769,1586) scale(0.61,0.61)"><g transform="" style="fill: rgb(43, 134, 205);">
<rect width="100" height="100"/>
</g></g><g transform="translate(1830,1586) scale(0.61,0.61)"><g transform="" style="fill: rgb(43, 134, 205);">
<rect width="100" height="100"/>
</g></g><g transform="translate(1891,1586) scale(0.61,0.61)"><g transform="" style="fill: rgb(43, 134, 205);">
<rect width="100" height="100"/>
</g></g><g transform="translate(488,1647) scale(0.61,0.61)"><g transform="" style="fill: rgb(43, 134, 205);">
<rect width="100" height="100"/>
</g></g><g transform="translate(549,1647) scale(0.61,0.61)"><g transform="" style="fill: rgb(43, 134, 205);">
<rect width="100" height="100"/>
</g></g><g transform="translate(610,1647) scale(0.61,0.61)"><g transform="" style="fill: rgb(43, 134, 205);">
<rect width="100" height="100"/>
</g></g><g transform="translate(671,1647) scale(0.61,0.61)"><g transform="" style="fill: rgb(43, 134, 205);">
<rect width="100" height="100"/>
</g></g><g transform="translate(732,1647) scale(0.61,0.61)"><g transform="" style="fill: rgb(43, 134, 205);">
<rect width="100" height="100"/>
</g></g><g transform="translate(915,1647) scale(0.61,0.61)"><g transform="" style="fill: rgb(43, 134, 205);">
<rect width="100" height="100"/>
</g></g><g transform="translate(1220,1647) scale(0.61,0.61)"><g transform="" style="fill: rgb(43, 134, 205);">
<rect width="100" height="100"/>
</g></g><g transform="translate(1281,1647) scale(0.61,0.61)"><g transform="" style="fill: rgb(43, 134, 205);">
<rect width="100" height="100"/>
</g></g><g transform="translate(1464,1647) scale(0.61,0.61)"><g transform="" style="fill: rgb(43, 134, 205);">
<rect width="100" height="100"/>
</g></g><g transform="translate(1708,1647) scale(0.61,0.61)"><g transform="" style="fill: rgb(43, 134, 205);">
<rect width="100" height="100"/>
</g></g><g transform="translate(1891,1647) scale(0.61,0.61)"><g transform="" style="fill: rgb(43, 134, 205);">
<rect width="100" height="100"/>
</g></g><g transform="translate(1952,1647) scale(0.61,0.61)"><g transform="" style="fill: rgb(43, 134, 205);">
<rect width="100" height="100"/>
</g></g><g transform="translate(488,1708) scale(0.61,0.61)"><g transform="" style="fill: rgb(43, 134, 205);">
<rect width="100" height="100"/>
</g></g><g transform="translate(549,1708) scale(0.61,0.61)"><g transform="" style="fill: rgb(43, 134, 205);">
<rect width="100" height="100"/>
</g></g><g transform="translate(671,1708) scale(0.61,0.61)"><g transform="" style="fill: rgb(43, 134, 205);">
<rect width="100" height="100"/>
</g></g><g transform="translate(793,1708) scale(0.61,0.61)"><g transform="" style="fill: rgb(43, 134, 205);">
<rect width="100" height="100"/>
</g></g><g transform="translate(976,1708) scale(0.61,0.61)"><g transform="" style="fill: rgb(43, 134, 205);">
<rect width="100" height="100"/>
</g></g><g transform="translate(1098,1708) scale(0.61,0.61)"><g transform="" style="fill: rgb(43, 134, 205);">
<rect width="100" height="100"/>
</g></g><g transform="translate(1220,1708) scale(0.61,0.61)"><g transform="" style="fill: rgb(43, 134, 205);">
<rect width="100" height="100"/>
</g></g><g transform="translate(1464,1708) scale(0.61,0.61)"><g transform="" style="fill: rgb(43, 134, 205);">
<rect width="100" height="100"/>
</g></g><g transform="translate(1525,1708) scale(0.61,0.61)"><g transform="" style="fill: rgb(43, 134, 205);">
<rect width="100" height="100"/>
</g></g><g transform="translate(1586,1708) scale(0.61,0.61)"><g transform="" style="fill: rgb(43, 134, 205);">
<rect width="100" height="100"/>
</g></g><g transform="translate(1647,1708) scale(0.61,0.61)"><g transform="" style="fill: rgb(43, 134, 205);">
<rect width="100" height="100"/>
</g></g><g transform="translate(1708,1708) scale(0.61,0.61)"><g transform="" style="fill: rgb(43, 134, 205);">
<rect width="100" height="100"/>
</g></g><g transform="translate(671,1769) scale(0.61,0.61)"><g transform="" style="fill: rgb(43, 134, 205);">
<rect width="100" height="100"/>
</g></g><g transform="translate(732,1769) scale(0.61,0.61)"><g transform="" style="fill: rgb(43, 134, 205);">
<rect width="100" height="100"/>
</g></g><g transform="translate(976,1769) scale(0.61,0.61)"><g transform="" style="fill: rgb(43, 134, 205);">
<rect width="100" height="100"/>
</g></g><g transform="translate(1159,1769) scale(0.61,0.61)"><g transform="" style="fill: rgb(43, 134, 205);">
<rect width="100" height="100"/>
</g></g><g transform="translate(1281,1769) scale(0.61,0.61)"><g transform="" style="fill: rgb(43, 134, 205);">
<rect width="100" height="100"/>
</g></g><g transform="translate(1342,1769) scale(0.61,0.61)"><g transform="" style="fill: rgb(43, 134, 205);">
<rect width="100" height="100"/>
</g></g><g transform="translate(1586,1769) scale(0.61,0.61)"><g transform="" style="fill: rgb(43, 134, 205);">
<rect width="100" height="100"/>
</g></g><g transform="translate(1647,1769) scale(0.61,0.61)"><g transform="" style="fill: rgb(43, 134, 205);">
<rect width="100" height="100"/>
</g></g><g transform="translate(1708,1769) scale(0.61,0.61)"><g transform="" style="fill: rgb(43, 134, 205);">
<rect width="100" height="100"/>
</g></g><g transform="translate(1769,1769) scale(0.61,0.61)"><g transform="" style="fill: rgb(43, 134, 205);">
<rect width="100" height="100"/>
</g></g><g transform="translate(1952,1769) scale(0.61,0.61)"><g transform="" style="fill: rgb(43, 134, 205);">
<rect width="100" height="100"/>
</g></g><g transform="translate(549,1830) scale(0.61,0.61)"><g transform="" style="fill: rgb(43, 134, 205);">
<rect width="100" height="100"/>
</g></g><g transform="translate(976,1830) scale(0.61,0.61)"><g transform="" style="fill: rgb(43, 134, 205);">
<rect width="100" height="100"/>
</g></g><g transform="translate(1037,1830) scale(0.61,0.61)"><g transform="" style="fill: rgb(43, 134, 205);">
<rect width="100" height="100"/>
</g></g><g transform="translate(1098,1830) scale(0.61,0.61)"><g transform="" style="fill: rgb(43, 134, 205);">
<rect width="100" height="100"/>
</g></g><g transform="translate(1220,1830) scale(0.61,0.61)"><g transform="" style="fill: rgb(43, 134, 205);">
<rect width="100" height="100"/>
</g></g><g transform="translate(1342,1830) scale(0.61,0.61)"><g transform="" style="fill: rgb(43, 134, 205);">
<rect width="100" height="100"/>
</g></g><g transform="translate(1403,1830) scale(0.61,0.61)"><g transform="" style="fill: rgb(43, 134, 205);">
<rect width="100" height="100"/>
</g></g><g transform="translate(1525,1830) scale(0.61,0.61)"><g transform="" style="fill: rgb(43, 134, 205);">
<rect width="100" height="100"/>
</g></g><g transform="translate(1586,1830) scale(0.61,0.61)"><g transform="" style="fill: rgb(43, 134, 205);">
<rect width="100" height="100"/>
</g></g><g transform="translate(1708,1830) scale(0.61,0.61)"><g transform="" style="fill: rgb(43, 134, 205);">
<rect width="100" height="100"/>
</g></g><g transform="translate(1830,1830) scale(0.61,0.61)"><g transform="" style="fill: rgb(43, 134, 205);">
<rect width="100" height="100"/>
</g></g><g transform="translate(671,1891) scale(0.61,0.61)"><g transform="" style="fill: rgb(43, 134, 205);">
<rect width="100" height="100"/>
</g></g><g transform="translate(793,1891) scale(0.61,0.61)"><g transform="" style="fill: rgb(43, 134, 205);">
<rect width="100" height="100"/>
</g></g><g transform="translate(854,1891) scale(0.61,0.61)"><g transform="" style="fill: rgb(43, 134, 205);">
<rect width="100" height="100"/>
</g></g><g transform="translate(976,1891) scale(0.61,0.61)"><g transform="" style="fill: rgb(43, 134, 205);">
<rect width="100" height="100"/>
</g></g><g transform="translate(1037,1891) scale(0.61,0.61)"><g transform="" style="fill: rgb(43, 134, 205);">
<rect width="100" height="100"/>
</g></g><g transform="translate(1281,1891) scale(0.61,0.61)"><g transform="" style="fill: rgb(43, 134, 205);">
<rect width="100" height="100"/>
</g></g><g transform="translate(1403,1891) scale(0.61,0.61)"><g transform="" style="fill: rgb(43, 134, 205);">
<rect width="100" height="100"/>
</g></g><g transform="translate(1464,1891) scale(0.61,0.61)"><g transform="" style="fill: rgb(43, 134, 205);">
<rect width="100" height="100"/>
</g></g><g transform="translate(1647,1891) scale(0.61,0.61)"><g transform="" style="fill: rgb(43, 134, 205);">
<rect width="100" height="100"/>
</g></g><g transform="translate(1708,1891) scale(0.61,0.61)"><g transform="" style="fill: rgb(43, 134, 205);">
<rect width="100" height="100"/>
</g></g><g transform="translate(1769,1891) scale(0.61,0.61)"><g transform="" style="fill: rgb(43, 134, 205);">
<rect width="100" height="100"/>
</g></g><g transform="translate(610,1952) scale(0.61,0.61)"><g transform="" style="fill: rgb(43, 134, 205);">
<rect width="100" height="100"/>
</g></g><g transform="translate(732,1952) scale(0.61,0.61)"><g transform="" style="fill: rgb(43, 134, 205);">
<rect width="100" height="100"/>
</g></g><g transform="translate(915,1952) scale(0.61,0.61)"><g transform="" style="fill: rgb(43, 134, 205);">
<rect width="100" height="100"/>
</g></g><g transform="translate(1098,1952) scale(0.61,0.61)"><g transform="" style="fill: rgb(43, 134, 205);">
<rect width="100" height="100"/>
</g></g><g transform="translate(1220,1952) scale(0.61,0.61)"><g transform="" style="fill: rgb(43, 134, 205);">
<rect width="100" height="100"/>
</g></g><g transform="translate(1281,1952) scale(0.61,0.61)"><g transform="" style="fill: rgb(43, 134, 205);">
<rect width="100" height="100"/>
</g></g><g transform="translate(1342,1952) scale(0.61,0.61)"><g transform="" style="fill: rgb(43, 134, 205);">
<rect width="100" height="100"/>
</g></g><g transform="translate(1403,1952) scale(0.61,0.61)"><g transform="" style="fill: rgb(43, 134, 205);">
<rect width="100" height="100"/>
</g></g><g transform="translate(1464,1952) scale(0.61,0.61)"><g transform="" style="fill: rgb(43, 134, 205);">
<rect width="100" height="100"/>
</g></g><g transform="translate(1647,1952) scale(0.61,0.61)"><g transform="" style="fill: rgb(43, 134, 205);">
<rect width="100" height="100"/>
</g></g><g transform="translate(1830,1952) scale(0.61,0.61)"><g transform="" style="fill: rgb(43, 134, 205);">
<rect width="100" height="100"/>
</g></g><g transform="translate(1952,1952) scale(0.61,0.61)"><g transform="" style="fill: rgb(43, 134, 205);">
<rect width="100" height="100"/>
</g></g><g transform="translate(0,0) scale(4.27, 4.27)"><g transform="" style="fill: rgb(43, 134, 205);">
<g>
	<path style="fill:none;" d="M65.859,15.008H34.141c-4.082,0-7.869,1.258-10.979,3.398c-2.419,1.665-4.428,3.864-5.848,6.421
		C15.838,27.484,15,30.526,15,33.758v32.471c0,10.344,8.586,18.76,19.145,18.76L50,84.992l15.855-0.004
		C76.414,84.988,85,76.572,85,66.229V33.758C85,23.419,76.414,15.008,65.859,15.008z"/>
	<path d="M65.859,0.008H34.141h0C18.683,0.008,5.587,10.221,1.4,24.18c-0.433,1.444-0.771,2.928-1.006,4.445
		C0.135,30.299,0,32.013,0,33.758v32.471c0,18.619,15.32,33.76,34.141,33.76L50,99.992l15.859-0.004
		c18.82,0,34.141-15.141,34.141-33.76V33.758C100,15.148,84.68,0.008,65.859,0.008z M85,66.229c0,10.344-8.586,18.76-19.145,18.76
		L50,84.992l-15.855-0.004C23.586,84.988,15,76.572,15,66.229V33.758c0-3.231,0.838-6.273,2.313-8.931
		c1.42-2.557,3.429-4.756,5.848-6.421c3.11-2.141,6.897-3.398,10.979-3.398h31.719C76.414,15.008,85,23.419,85,33.758V66.229z"/>
</g>
</g></g><g transform="translate(1586,0) scale(4.27, 4.27)"><g transform="" style="fill: rgb(43, 134, 205);">
<g>
	<path style="fill:none;" d="M65.859,15.008H34.141c-4.082,0-7.869,1.258-10.979,3.398c-2.419,1.665-4.428,3.864-5.848,6.421
		C15.838,27.484,15,30.526,15,33.758v32.471c0,10.344,8.586,18.76,19.145,18.76L50,84.992l15.855-0.004
		C76.414,84.988,85,76.572,85,66.229V33.758C85,23.419,76.414,15.008,65.859,15.008z"/>
	<path d="M65.859,0.008H34.141h0C18.683,0.008,5.587,10.221,1.4,24.18c-0.433,1.444-0.771,2.928-1.006,4.445
		C0.135,30.299,0,32.013,0,33.758v32.471c0,18.619,15.32,33.76,34.141,33.76L50,99.992l15.859-0.004
		c18.82,0,34.141-15.141,34.141-33.76V33.758C100,15.148,84.68,0.008,65.859,0.008z M85,66.229c0,10.344-8.586,18.76-19.145,18.76
		L50,84.992l-15.855-0.004C23.586,84.988,15,76.572,15,66.229V33.758c0-3.231,0.838-6.273,2.313-8.931
		c1.42-2.557,3.429-4.756,5.848-6.421c3.11-2.141,6.897-3.398,10.979-3.398h31.719C76.414,15.008,85,23.419,85,33.758V66.229z"/>
</g>
</g></g><g transform="translate(0,1586) scale(4.27, 4.27)"><g transform="" style="fill: rgb(43, 134, 205);">
<g>
	<path style="fill:none;" d="M65.859,15.008H34.141c-4.082,0-7.869,1.258-10.979,3.398c-2.419,1.665-4.428,3.864-5.848,6.421
		C15.838,27.484,15,30.526,15,33.758v32.471c0,10.344,8.586,18.76,19.145,18.76L50,84.992l15.855-0.004
		C76.414,84.988,85,76.572,85,66.229V33.758C85,23.419,76.414,15.008,65.859,15.008z"/>
	<path d="M65.859,0.008H34.141h0C18.683,0.008,5.587,10.221,1.4,24.18c-0.433,1.444-0.771,2.928-1.006,4.445
		C0.135,30.299,0,32.013,0,33.758v32.471c0,18.619,15.32,33.76,34.141,33.76L50,99.992l15.859-0.004
		c18.82,0,34.141-15.141,34.141-33.76V33.758C100,15.148,84.68,0.008,65.859,0.008z M85,66.229c0,10.344-8.586,18.76-19.145,18.76
		L50,84.992l-15.855-0.004C23.586,84.988,15,76.572,15,66.229V33.758c0-3.231,0.838-6.273,2.313-8.931
		c1.42-2.557,3.429-4.756,5.848-6.421c3.11-2.141,6.897-3.398,10.979-3.398h31.719C76.414,15.008,85,23.419,85,33.758V66.229z"/>
</g>
</g></g><g transform="translate(122,122) scale(1.83, 1.83)"><g transform="" style="fill: rgb(43, 134, 205);">
<rect width="100" height="100"/>
</g></g><g transform="translate(1708,122) scale(1.83, 1.83)"><g transform="" style="fill: rgb(43, 134, 205);">
<rect width="100" height="100"/>
</g></g><g transform="translate(122,1708) scale(1.83, 1.83)"><g transform="" style="fill: rgb(43, 134, 205);">
<rect width="100" height="100"/>
</g></g><g transform="translate(549,813.15178571429) scale(5.4464285714286,5.4464285714286)" width="915" height="386.69642857143"><svg width="168" height="71" viewBox="0 0 168 71" fill="none" xmlns="http://www.w3.org/2000/svg">
<path fill-rule="evenodd" clip-rule="evenodd" d="M44.4024 1.06042L34.5915 31.1002C34.1869 32.8196 33.2766 34.4379 31.8606 35.4493C30.3434 36.5619 28.7251 37.2699 26.9046 37.2699H2.42773L4.6529 28.7738L25.792 28.6727L34.8949 1.06042H44.4024Z" fill="#E10721"/>
<path fill-rule="evenodd" clip-rule="evenodd" d="M20.5322 47.2833L14.1601 70.0406H23.0608L29.2306 48.9016C30.3432 43.3386 29.8374 39.4952 22.9597 39.4952H2.02288L0 47.2833H20.5322Z" fill="#E10721"/>
<path fill-rule="evenodd" clip-rule="evenodd" d="M80.0042 1.06037L72.0138 25.7395H74.6435L71.7104 34.9436H51.2793C49.1553 34.9436 47.6381 34.7413 46.6267 34.3367C45.0084 33.7298 44.1992 32.6173 44.1992 30.8978C44.1992 29.5829 44.5027 27.8635 45.2107 25.7395L53.3022 1.06037H62.2028L54.2125 25.7395H63.012L71.1035 1.06037H80.0042ZM111.561 1.06037H103.065L86.4774 20.2777L92.7483 1.06037H84.151L73.1264 34.9436H81.7236L98.2101 15.8274L92.0403 34.9436H100.536L111.561 1.06037ZM140.286 1.06037L137.454 9.75875H128.756L120.563 34.8424H111.662L119.855 9.75875H111.156L113.988 1.06037H140.286V1.06037ZM166.988 5.30842C166.988 3.58897 166.28 2.37524 164.763 1.66724C163.751 1.26266 162.234 0.959229 160.11 0.959229H150.299C146.961 0.959229 144.534 1.66724 142.815 2.98211C141.095 4.29698 139.78 6.52214 138.668 9.75875L133.509 25.7395C132.801 27.7624 132.498 29.3807 132.498 30.6955C132.498 32.415 133.206 33.6287 134.723 34.2356C135.734 34.6401 137.252 34.8424 139.274 34.8424H149.085C152.524 34.8424 155.154 34.1344 156.874 32.7184C158.391 31.4035 159.807 29.0772 160.818 25.7395L166.078 9.75875C166.684 8.0393 166.988 6.52214 166.988 5.30842ZM157.278 9.75875L152.019 25.6383H142.208L147.467 9.75875H157.278V9.75875Z" fill="#1F5F9A"/>
<path fill-rule="evenodd" clip-rule="evenodd" d="M42.581 47.1821L35.8044 69.9395H27.0049L33.6804 45.1592C34.085 43.4398 34.9952 41.8215 36.5124 40.81C38.1307 39.6975 39.5467 39.4952 41.3673 39.4952H69.991L67.9682 47.1821H42.581Z" fill="#E10721"/>
<path fill-rule="evenodd" clip-rule="evenodd" d="M167.999 39.4952H136.341L134.521 47.2833H165.875L167.999 39.4952Z" fill="#E10721"/>
<path fill-rule="evenodd" clip-rule="evenodd" d="M74.6444 41.518C75.0489 41.518 75.3524 41.6192 75.6558 41.8215C75.9592 42.0238 76.1615 42.226 76.2627 42.5295C76.3638 42.8329 76.3638 43.2375 76.2627 43.6421C76.1615 44.3501 75.757 44.8558 75.2512 45.3615C74.7455 45.8672 74.0375 46.0695 73.4306 46.0695C72.8238 46.0695 72.4192 45.8672 72.1158 45.4626C71.8123 45.0581 71.7112 44.5524 71.8123 44.0466C71.9135 43.3386 72.3181 42.7318 72.8238 42.226C73.4306 41.8215 74.0375 41.518 74.6444 41.518ZM74.4421 42.5295C74.0375 42.5295 73.6329 42.7318 73.4306 43.0352C73.1272 43.3386 72.9249 43.6421 72.9249 44.0466C72.8238 44.3501 72.9249 44.6535 73.0261 44.8558C73.1272 45.0581 73.4306 45.1592 73.7341 45.1592C74.1387 45.1592 74.5432 45.0581 74.8467 44.7546C75.1501 44.4512 75.3524 44.1478 75.3524 43.7432C75.4535 43.4398 75.3524 43.1363 75.2512 42.9341C74.9478 42.6306 74.7455 42.5295 74.4421 42.5295ZM81.421 42.5295L80.4096 43.0352C80.2073 42.7318 79.9039 42.5295 79.4993 42.5295C79.1958 42.5295 78.9936 42.6306 78.6901 42.7318C78.4878 42.8329 78.2855 43.0352 78.0833 43.2375C78.0833 43.5409 77.881 43.7432 77.881 44.0466C77.7798 44.3501 77.881 44.6535 78.0833 44.8558C78.2855 45.0581 78.4878 45.1592 78.8924 45.1592C79.3981 45.1592 79.8027 44.9569 80.1061 44.6535L80.8141 45.2604C80.5107 45.5638 80.2073 45.7661 79.8027 45.9684C79.3981 46.1707 78.9936 46.1707 78.589 46.1707C77.9821 46.1707 77.4764 45.9684 77.173 45.5638C76.8695 45.1592 76.7684 44.6535 76.8695 44.0466C76.9707 43.3386 77.3753 42.7318 77.881 42.226C78.4878 41.7203 79.0947 41.518 79.8027 41.518C80.6119 41.518 81.2187 41.9226 81.421 42.5295ZM82.5336 45.9684H81.5222L82.9382 41.6192H83.9496L83.4439 43.1363H84.961L85.4668 41.6192H86.4782L85.0622 45.9684H84.0508L84.6576 44.1478H83.1405L82.5336 45.9684ZM89.5125 41.518C89.9171 41.518 90.2205 41.6192 90.524 41.8215C90.8274 42.0238 91.0297 42.226 91.1308 42.5295C91.232 42.8329 91.232 43.2375 91.1308 43.6421C91.0297 44.3501 90.6251 44.8558 90.1194 45.3615C89.6137 45.8672 88.9057 46.0695 88.2988 46.0695C87.6919 46.0695 87.2874 45.8672 86.9839 45.4626C86.6805 45.0581 86.5793 44.5524 86.6805 44.0466C86.7816 43.3386 87.1862 42.7318 87.6919 42.226C88.2988 41.8215 88.9057 41.518 89.5125 41.518ZM89.2091 42.5295C88.8045 42.5295 88.3999 42.7318 88.1976 43.0352C87.8942 43.3386 87.6919 43.6421 87.6919 44.0466C87.5908 44.3501 87.6919 44.6535 87.7931 44.8558C87.8942 45.0581 88.1977 45.1592 88.5011 45.1592C88.9057 45.1592 89.3102 45.0581 89.6137 44.7546C89.9171 44.4512 90.1194 44.1478 90.1194 43.7432C90.2205 43.4398 90.1194 43.1363 90.0182 42.9341C89.816 42.6306 89.5125 42.5295 89.2091 42.5295ZM91.4343 45.9684L92.8503 41.6192H94.4686C94.8732 41.6192 95.1766 41.7203 95.3789 41.9226C95.5812 42.1249 95.5812 42.4283 95.5812 42.6306C95.48 43.1363 95.1766 43.4398 94.6709 43.5409C95.1766 43.7432 95.3789 44.1478 95.2777 44.6535C95.0754 45.4626 94.4686 45.8672 93.356 45.8672H91.4343V45.9684ZM93.2548 43.4398H93.7606C93.8617 43.4398 94.064 43.4398 94.1651 43.3386C94.2663 43.2375 94.3674 43.1363 94.3674 42.9341C94.4686 42.6306 94.2663 42.4283 93.8617 42.4283H93.5583L93.2548 43.4398ZM92.7491 45.1592H93.2548C93.7606 45.1592 93.9629 44.9569 94.064 44.6535C94.1651 44.2489 93.9629 44.1478 93.4571 44.1478H93.0526L92.7491 45.1592ZM100.031 41.7203H101.043L99.6269 46.0695H98.6155L98.7166 45.5638C98.4132 45.7661 98.2109 45.9684 98.0086 45.9684C97.8063 46.0695 97.604 46.0695 97.3006 46.0695C96.7949 46.0695 96.3903 45.8672 96.0869 45.4626C95.8846 45.0581 95.7834 44.5524 95.8846 43.9455C95.9857 43.5409 96.188 43.1363 96.3903 42.7318C96.6937 42.3272 96.9972 42.0238 97.4017 41.8215C97.8063 41.6192 98.2109 41.518 98.6155 41.518C98.9189 41.518 99.1212 41.6192 99.3235 41.7203C99.5258 41.8215 99.6269 42.0238 99.7281 42.226L100.031 41.7203ZM97.9075 45.1592C98.2109 45.1592 98.4132 45.0581 98.6155 44.9569C98.8178 44.8558 99.02 44.6535 99.2223 44.4512C99.4246 44.2489 99.5258 43.9455 99.5258 43.6421C99.6269 43.3386 99.5258 43.0352 99.4246 42.8329C99.2223 42.6306 99.02 42.5295 98.7166 42.5295C98.312 42.5295 98.0086 42.6306 97.7052 42.9341C97.4017 43.2375 97.1995 43.5409 97.0983 44.0466C96.9972 44.3501 97.0983 44.6535 97.1995 44.8558C97.3006 45.0581 97.604 45.1592 97.9075 45.1592ZM101.852 45.9684L102.459 44.1478H103.976L103.369 45.9684H104.381L105.797 41.6192H104.785L104.28 43.1363H102.762L103.268 41.6192H102.257L100.841 45.9684H101.852ZM107.921 45.9684L109.337 41.6192H110.955C111.36 41.6192 111.663 41.7203 111.865 41.9226C112.068 42.1249 112.068 42.4283 112.068 42.6306C111.966 43.1363 111.663 43.4398 111.157 43.5409C111.663 43.7432 111.865 44.1478 111.764 44.6535C111.562 45.4626 110.955 45.8672 109.842 45.8672H107.921V45.9684ZM109.741 43.4398H110.247C110.348 43.4398 110.55 43.4398 110.652 43.3386C110.753 43.2375 110.854 43.1363 110.854 42.9341C110.955 42.6306 110.753 42.4283 110.348 42.4283H110.045L109.741 43.4398ZM109.236 45.1592H109.741C110.247 45.1592 110.449 44.9569 110.55 44.6535C110.652 44.2489 110.449 44.1478 109.944 44.1478H109.539L109.236 45.1592ZM116.821 40.102H118.541L116.619 45.9684H115.608L117.125 41.1135H116.316L116.821 40.102ZM120.361 46.1707L119.653 45.5638L121.373 43.6421C121.272 43.6421 121.069 43.7432 120.968 43.7432C120.564 43.7432 120.159 43.5409 119.957 43.2375C119.755 42.9341 119.653 42.5295 119.755 42.0238C119.856 41.4169 120.159 41.0123 120.564 40.6077C120.968 40.2032 121.474 40.0009 122.081 40.0009C122.587 40.0009 122.991 40.2032 123.295 40.5066C123.598 40.81 123.699 41.3157 123.598 41.8215C123.598 42.0238 123.497 42.226 123.396 42.4283C123.295 42.7318 123.092 42.9341 122.89 43.2375C122.587 43.6421 122.283 44.1478 121.879 44.4512L120.361 46.1707ZM121.474 42.7318C121.676 42.7318 121.98 42.6306 122.182 42.4283C122.384 42.226 122.485 42.0238 122.587 41.8215C122.587 41.6192 122.587 41.4169 122.485 41.2146C122.384 41.0123 122.182 41.0123 121.98 41.0123C121.777 41.0123 121.474 41.1135 121.272 41.3157C121.069 41.518 120.968 41.7203 120.867 41.9226C120.867 42.1249 120.867 42.3272 120.968 42.5295C121.069 42.6306 121.272 42.7318 121.474 42.7318ZM125.317 41.9226C125.419 41.6192 125.52 41.3157 125.722 41.2146C125.823 41.1135 126.025 41.0123 126.228 41.0123C126.43 41.0123 126.531 41.1135 126.632 41.2146C126.733 41.3157 126.733 41.518 126.733 41.7203C126.733 41.9226 126.632 42.0238 126.531 42.226C126.43 42.4283 126.127 42.8329 125.621 43.2375C125.216 43.5409 124.508 44.2489 123.295 45.2604L123.092 46.0695H126.632L126.936 45.0581H125.014C126.127 44.0466 126.835 43.3386 127.239 42.9341C127.543 42.5295 127.745 42.1249 127.846 41.7203C127.947 41.2146 127.846 40.9112 127.644 40.5066C127.441 40.2032 127.037 40.0009 126.531 40.0009C126.228 40.0009 125.924 40.102 125.621 40.2032C125.317 40.4055 125.115 40.6077 124.913 40.9112C124.711 41.2146 124.508 41.518 124.508 41.9226H125.317V41.9226ZM130.071 40.102H131.791L129.869 45.9684H128.857L130.375 41.1135H129.566L130.071 40.102Z" fill="#E10721"/>
<path fill-rule="evenodd" clip-rule="evenodd" d="M63.9233 52.9471H65.7439L64.7324 56.5883H68.0702L69.0816 52.9471H70.8011L68.1713 62.6569H66.3507L67.5644 58.2066H64.2267L63.013 62.6569H61.1924L63.9233 52.9471ZM71.5091 60.634C71.2056 60.634 70.9022 60.7352 70.6999 60.9374C70.4976 61.1397 70.2953 61.4432 70.2953 61.7466C70.2953 62.05 70.2953 62.3535 70.4976 62.5557C70.6999 62.758 70.9022 62.8592 71.2056 62.8592C71.5091 62.8592 71.8125 62.758 72.0148 62.5557C72.2171 62.3535 72.4194 62.05 72.4194 61.7466C72.4194 61.4432 72.4194 61.1397 72.2171 60.9374C72.1159 60.7352 71.8125 60.634 71.5091 60.634ZM76.7685 52.9471H78.5891L77.5777 56.5883H80.9154L81.9269 52.9471H83.7475L81.1177 62.6569H79.2971L80.5109 58.2066H77.1731L75.9594 62.6569H74.1388L76.7685 52.9471ZM84.4555 60.634C84.152 60.634 83.8486 60.7352 83.6463 60.9374C83.444 61.1397 83.2418 61.4432 83.2418 61.7466C83.2418 62.05 83.2417 62.3535 83.444 62.5557C83.6463 62.758 83.8486 62.8592 84.152 62.8592C84.4555 62.8592 84.7589 62.758 84.9612 62.5557C85.1635 62.3535 85.3658 62.05 85.3658 61.7466C85.3658 61.4432 85.3658 61.1397 85.1635 60.9374C84.9612 60.7352 84.7589 60.634 84.4555 60.634ZM89.6138 52.9471H96.5927L93.963 62.6569H92.1424L94.3676 54.6665H91.0298L88.8047 62.6569H86.9841L89.6138 52.9471ZM96.9973 65.2866L98.0088 61.6455C98.211 62.05 98.4133 62.3535 98.8179 62.5557C99.1213 62.758 99.5259 62.8592 100.032 62.8592C100.638 62.8592 101.347 62.6569 101.953 62.3535C102.56 61.9489 103.167 61.5443 103.572 60.8363C103.976 60.2294 104.28 59.5214 104.381 58.8134C104.482 57.9031 104.381 57.094 103.875 56.386C103.471 55.678 102.763 55.3745 101.751 55.3745C101.346 55.3745 100.942 55.4757 100.638 55.5768C100.335 55.678 99.9305 55.9814 99.5259 56.386L99.7282 55.5768H98.0088L95.2779 65.3878H96.9973V65.2866ZM101.144 56.8917C101.65 56.8917 102.055 57.094 102.358 57.3974C102.661 57.7008 102.763 58.2066 102.661 58.7123C102.56 59.4203 102.257 60.0271 101.751 60.5329C101.245 61.0386 100.74 61.2409 100.133 61.2409C99.6271 61.2409 99.2225 61.0386 98.9191 60.7352C98.6156 60.4317 98.5145 59.926 98.6156 59.4203C98.7168 59.0157 98.8179 58.6111 99.1213 58.1054C99.4248 57.7008 99.7282 57.3974 100.032 57.1951C100.335 56.9928 100.638 56.8917 101.144 56.8917ZM105.797 62.6569H104.887L106.808 55.4757H108.528L107.415 59.6226L111.967 55.4757H112.877L110.955 62.6569H109.236L110.348 58.51L105.797 62.6569ZM118.035 55.2734C118.642 55.2734 119.249 55.3745 119.654 55.678C120.159 55.9814 120.463 56.386 120.665 56.8917C120.867 57.3974 120.968 58.0043 120.867 58.7123C120.665 59.8249 120.159 60.7352 119.249 61.5443C118.339 62.3535 117.327 62.758 116.114 62.758C115.102 62.758 114.293 62.4546 113.787 61.8477C113.281 61.2409 113.079 60.4317 113.18 59.4203C113.383 58.2066 113.888 57.1951 114.799 56.386C116.012 55.678 117.024 55.2734 118.035 55.2734ZM117.732 56.9928C117.024 56.9928 116.417 57.2963 116.012 57.802C115.608 58.3077 115.304 58.9146 115.203 59.5214C115.102 60.0271 115.203 60.5329 115.507 60.8363C115.81 61.1397 116.215 61.342 116.72 61.342C117.428 61.342 118.035 61.1397 118.541 60.634C119.047 60.1283 119.249 59.5214 119.35 58.9146C119.451 58.4088 119.35 58.0043 119.047 57.5997C118.642 57.094 118.238 56.9928 117.732 56.9928ZM122.486 65.2866L123.497 61.6455C123.699 62.05 123.902 62.3535 124.306 62.5557C124.61 62.758 125.014 62.8592 125.52 62.8592C126.127 62.8592 126.835 62.6569 127.442 62.3535C128.048 61.9489 128.655 61.5443 129.06 60.8363C129.464 60.2294 129.768 59.5214 129.869 58.8134C129.97 57.9031 129.869 57.094 129.363 56.386C128.959 55.678 128.251 55.3745 127.239 55.3745C126.835 55.3745 126.43 55.4757 126.127 55.5768C125.823 55.678 125.419 55.9814 125.014 56.386L125.216 55.5768H123.396L120.665 65.3878H122.486V65.2866ZM126.632 56.8917C127.138 56.8917 127.543 57.094 127.846 57.3974C128.15 57.7008 128.251 58.2066 128.15 58.7123C128.048 59.4203 127.745 60.0271 127.239 60.5329C126.734 61.0386 126.228 61.2409 125.621 61.2409C125.115 61.2409 124.711 61.0386 124.407 60.7352C124.104 60.4317 124.003 59.926 124.104 59.4203C124.205 59.0157 124.306 58.6111 124.61 58.1054C124.913 57.7008 125.216 57.3974 125.52 57.1951C125.823 56.9928 126.127 56.8917 126.632 56.8917ZM135.533 55.2734C136.14 55.2734 136.747 55.3745 137.151 55.678C137.657 55.9814 137.961 56.386 138.163 56.8917C138.365 57.3974 138.466 58.0043 138.365 58.7123C138.163 59.8249 137.657 60.7352 136.747 61.5443C135.837 62.3535 134.825 62.758 133.611 62.758C132.6 62.758 131.791 62.4546 131.285 61.8477C130.779 61.2409 130.577 60.4317 130.678 59.4203C130.881 58.2066 131.386 57.1951 132.297 56.386C133.409 55.678 134.421 55.2734 135.533 55.2734ZM135.129 56.9928C134.421 56.9928 133.814 57.2963 133.409 57.802C133.005 58.3077 132.701 58.9146 132.6 59.5214C132.499 60.0271 132.6 60.5329 132.903 60.8363C133.207 61.1397 133.611 61.342 134.117 61.342C134.825 61.342 135.432 61.1397 135.938 60.634C136.443 60.1283 136.646 59.5214 136.747 58.9146C136.848 58.4088 136.747 58.0043 136.443 57.5997C136.039 57.094 135.634 56.9928 135.129 56.9928ZM139.073 62.6569L140.995 55.4757H143.726C144.434 55.4757 144.94 55.678 145.243 55.9814C145.546 56.2848 145.648 56.6894 145.648 57.1951C145.546 58.0043 145.041 58.51 144.13 58.8134C145.041 59.218 145.445 59.8249 145.243 60.634C145.041 61.9489 144.029 62.6569 142.107 62.6569H139.073ZM142.107 58.3077H142.917C143.119 58.3077 143.422 58.2066 143.625 58.1054C143.827 57.9031 143.928 57.7008 144.029 57.4985C144.13 56.9928 143.827 56.7905 143.22 56.7905H142.613L142.107 58.3077ZM141.298 61.342H142.209C143.018 61.342 143.523 61.0386 143.523 60.5329C143.625 59.926 143.22 59.6226 142.512 59.6226H141.804L141.298 61.342ZM153.436 55.4757H155.155L153.132 62.6569H151.413L151.615 61.8477C151.21 62.2523 150.806 62.4546 150.401 62.5557C150.098 62.6569 149.693 62.758 149.289 62.758C148.378 62.758 147.67 62.4546 147.165 61.7466C146.659 61.0386 146.558 60.2294 146.659 59.3191C146.76 58.6111 147.064 57.9031 147.468 57.2963C147.873 56.6894 148.48 56.1837 149.086 55.7791C149.693 55.3745 150.401 55.2734 151.008 55.2734C151.413 55.2734 151.817 55.3745 152.222 55.5768C152.525 55.7791 152.829 56.0825 153.031 56.4871L153.436 55.4757ZM149.997 61.2409C150.401 61.2409 150.806 61.1397 151.21 60.9374C151.514 60.7352 151.918 60.4317 152.121 60.0271C152.424 59.6226 152.525 59.218 152.626 58.8134C152.728 58.2066 152.626 57.802 152.323 57.3974C152.02 57.094 151.615 56.8917 151.109 56.8917C150.502 56.8917 149.896 57.094 149.39 57.5997C148.884 58.1054 148.581 58.6111 148.48 59.4203C148.378 60.0271 148.48 60.4317 148.783 60.7352C149.086 61.0386 149.491 61.2409 149.997 61.2409Z" fill="#1F5F9A"/>
<path fill-rule="evenodd" clip-rule="evenodd" d="M45.2114 62.7582H44.6045L46.0205 58.409H47.1331L46.3239 60.9376L49.2571 58.409H49.864L48.3468 62.7582H47.2342L48.0434 60.2296L45.2114 62.7582ZM52.7971 61.1399L52.2914 58.409H51.5834L49.0548 62.7582H50.1674L51.5834 60.2296L52.0891 62.7582H52.4937L54.6177 60.2296L54.3143 62.7582H55.4269L55.7303 58.409H55.0223L52.7971 61.1399ZM57.0452 61.4433C57.2475 61.4433 57.3486 61.5444 57.4498 61.6456C57.5509 61.7467 57.5509 61.949 57.5509 62.1513C57.5509 62.3536 57.4498 62.4547 57.2475 62.657C57.0452 62.7582 56.944 62.8593 56.7418 62.8593C56.5395 62.8593 56.4383 62.7582 56.3372 62.657C56.236 62.5559 56.236 62.3536 56.236 62.1513C56.236 61.949 56.3372 61.8479 56.5395 61.6456C56.6406 61.5444 56.8429 61.4433 57.0452 61.4433Z" fill="#1F5F9A"/>
</svg>
</g></g></svg>