<svg width="44" height="44" viewBox="0 0 44 44" fill="none" xmlns="http://www.w3.org/2000/svg">
<path d="M22.3438 42.625C28.7986 42.625 34.0312 37.3923 34.0312 30.9375C34.0312 24.4827 28.7986 19.25 22.3438 19.25C15.8889 19.25 10.6562 24.4827 10.6562 30.9375C10.6562 37.3923 15.8889 42.625 22.3438 42.625Z" fill="#D0D0D0"/>
<path d="M22.3438 20.625C16.6375 20.625 12.0312 25.2312 12.0312 30.9375C12.0312 36.6438 16.6375 41.25 22.3438 41.25C28.05 41.25 32.6562 36.6438 32.6562 30.9375C32.6562 25.2312 28.05 20.625 22.3438 20.625Z" fill="white"/>
<path d="M22.3438 26.4688C27.2798 26.4688 31.2812 22.4673 31.2812 17.5312C31.2812 12.5952 27.2798 8.59375 22.3438 8.59375C17.4077 8.59375 13.4062 12.5952 13.4062 17.5312C13.4062 22.4673 17.4077 26.4688 22.3438 26.4688Z" fill="#D0D0D0"/>
<path d="M22.3438 9.96875C18.15 9.96875 14.7812 13.3375 14.7812 17.5312C14.7812 21.725 18.15 25.0938 22.3438 25.0938C26.5375 25.0938 29.9062 21.725 29.9062 17.5312C29.9062 13.4062 26.5375 9.96875 22.3438 9.96875Z" fill="white"/>
<path d="M22.3438 19.8687C23.293 19.8687 24.0625 19.0992 24.0625 18.15C24.0625 17.2008 23.293 16.4312 22.3438 16.4312C21.3945 16.4312 20.625 17.2008 20.625 18.15C20.625 19.0992 21.3945 19.8687 22.3438 19.8687Z" fill="#FF8736"/>
<path d="M18.6312 16.3625C19.3906 16.3625 20.0062 15.7469 20.0062 14.9875C20.0062 14.2281 19.3906 13.6125 18.6312 13.6125C17.8719 13.6125 17.2562 14.2281 17.2562 14.9875C17.2562 15.7469 17.8719 16.3625 18.6312 16.3625Z" fill="#3E4347"/>
<path d="M26.0563 16.3625C26.8156 16.3625 27.4313 15.7469 27.4313 14.9875C27.4313 14.2281 26.8156 13.6125 26.0563 13.6125C25.2969 13.6125 24.6813 14.2281 24.6813 14.9875C24.6813 15.7469 25.2969 16.3625 26.0563 16.3625Z" fill="#3E4347"/>
<path d="M21.2437 31.8312L20.4875 29.6312L22.4125 28.2562L24.2687 29.6312L23.5812 31.8312H21.2437ZM21.2437 38.5687L20.4875 36.3687L22.4125 34.9937L24.2687 36.3687L23.5812 38.5687H21.2437ZM22.3437 23.375C20.2125 23.375 18.2187 22.4812 16.775 20.9C15.95 20.0062 16.9812 19.1125 17.8062 19.9375C18.975 21.2437 20.6937 21.9312 22.4125 21.9312C24.1312 21.9312 25.7812 21.175 27.0187 19.9375C27.8437 19.0437 28.875 19.9375 28.05 20.9C26.5375 22.4125 24.475 23.375 22.3437 23.375Z" fill="#3E4347"/>
<path d="M8.31875 6.25625L9.7625 3.9875L7.49375 5.43125L6.875 1.375L6.25625 5.43125L3.9875 3.9875L5.43125 6.25625L1.375 6.875L5.43125 7.49375L3.9875 9.7625L6.25625 8.31875L6.875 12.375L7.49375 8.31875L9.7625 9.7625L8.31875 7.49375L12.375 6.875L8.31875 6.25625ZM38.5687 33.0687L40.0125 30.8L37.7438 32.2438L37.125 28.1875L36.5062 32.2438L34.2375 30.8L35.6813 33.0687L31.625 33.6875L35.6813 34.3063L34.2375 36.575L36.5062 35.1312L37.125 39.1875L37.7438 35.1312L40.0125 36.575L38.5687 34.3063L42.625 33.6875L38.5687 33.0687ZM39.5312 5.01875L40.7 3.3L38.9813 4.46875L38.5 1.375L38.0187 4.46875L36.3 3.3L37.4688 5.01875L34.375 5.5L37.4688 5.98125L36.3 7.7L38.0187 6.53125L38.5 9.625L38.9813 6.53125L40.7 7.7L39.5312 5.98125L42.625 5.5L39.5312 5.01875ZM7.425 37.2625L8.73125 35.2687L6.7375 36.575L6.1875 33L5.6375 36.575L3.64375 35.2687L4.95 37.2625L1.375 37.8125L4.95 38.3625L3.64375 40.3563L5.6375 39.05L6.1875 42.625L6.7375 39.05L8.73125 40.3563L7.425 38.3625L11 37.8125L7.425 37.2625Z" fill="#A2CBDB"/>
<path d="M13.9563 11.3437C13.9563 11.3437 13.9563 7.5625 17.2563 6.94375C17.2563 6.94375 17.05 3.64375 25.9875 1.71875C29.9063 0.893749 30.6625 0.825 31.625 7.975C31.9688 10.725 35.4063 12.925 32.7938 13.75C31.9 14.0937 13.9563 11.3437 13.9563 11.3437Z" fill="#ED4C5C"/>
<path d="M33.6875 16.0188C35.0924 16.0188 36.2313 14.9107 36.2313 13.5438C36.2313 12.1769 35.0924 11.0688 33.6875 11.0688C32.2826 11.0688 31.1438 12.1769 31.1438 13.5438C31.1438 14.9107 32.2826 16.0188 33.6875 16.0188Z" fill="#C4CCCE"/>
<path d="M33.6875 15.0563C34.8266 15.0563 35.75 14.1636 35.75 13.0625C35.75 11.9614 34.8266 11.0688 33.6875 11.0688C32.5484 11.0688 31.625 11.9614 31.625 13.0625C31.625 14.1636 32.5484 15.0563 33.6875 15.0563Z" fill="#F5F5F5"/>
<path d="M23.5813 10.2437C17.875 9.2125 12.8563 10.45 12.4438 12.925C12.2375 13.8875 12.5125 15.125 13.5438 16.0187C13.1313 13.6812 18.4938 12.2375 23.1 13.0625C27.775 13.8875 31.9688 16.2937 31.1438 18.975C32.45 18.425 32.9313 17.6 33.1375 16.5687C33.55 14.0937 29.2875 11.2062 23.5813 10.2437Z" fill="#F5F5F5"/>
<path d="M23.1688 12.3062C17.4625 11.275 11.6188 13.9562 13.6125 16.0187C14.3688 13.8875 18.425 12.5812 23.1 13.4062C27.775 14.2312 31.0063 16.7062 31.2125 18.9062C34.0313 17.2562 28.875 13.3375 23.1688 12.3062Z" fill="#C4CCCE"/>
<path d="M14.575 21.9312C13.5437 21.175 12.1 24.2 12.65 24.475C20.4875 28.6 27.0875 25.5062 32.175 24.5437C32.7937 24.5437 31.2125 21.6562 30.1812 22C21.175 24.8875 18.0812 24.3375 14.575 21.9312Z" fill="#CC2E45"/>
<path d="M30.1125 33.6188C28.325 32.9313 25.3 34.5125 25.7125 33.6188C26.8813 31.2813 28.1188 24.9563 26.2625 23.1C25.5063 22.3438 29.15 21.3125 29.975 22C32.1063 23.9938 31.2813 34.0313 30.1125 33.6188Z" fill="#ED4C5C"/>
</svg>
