<svg width="286" height="200" viewBox="0 0 286 200" fill="none" xmlns="http://www.w3.org/2000/svg">
<path d="M46.4527 197.828V151.406H32.1973C13.3616 151.406 2.12266 143.531 2.12266 130.359V21.8906C2.12266 10.8438 15.3278 2.1875 32.1973 2.1875H253.803C270.94 2.1875 283.877 10.6563 283.877 21.8906V130.375C283.877 143.156 272.08 151.422 253.803 151.422H113.953L46.4527 197.828Z" fill="#2B86CD"/>
<path d="M32.1973 13.25C25.1144 13.25 17.9644 16.2188 17.9644 21.875V130.359C17.9644 137.437 22.098 140.313 32.1973 140.313H62.2944V171.375L107.473 140.328H253.803C263.388 140.328 268.036 137.063 268.036 130.375V21.8906C268.036 16.2344 260.886 13.2656 253.803 13.2656H32.1973V13.25Z" fill="white"/>
<path d="M41.1758 84.1289C41.1758 84.373 41.166 84.583 41.1465 84.7588C41.1367 84.9248 41.1172 85.0713 41.0879 85.1982C41.0586 85.3154 41.0195 85.418 40.9707 85.5059C40.9219 85.5938 40.8438 85.6963 40.7363 85.8135C40.6289 85.9209 40.4189 86.0625 40.1064 86.2383C39.8037 86.4141 39.4277 86.585 38.9785 86.751C38.5391 86.9072 38.0312 87.0391 37.4551 87.1465C36.8887 87.2539 36.2734 87.3076 35.6094 87.3076C34.3105 87.3076 33.1387 87.1074 32.0938 86.707C31.0488 86.3066 30.1602 85.7109 29.4277 84.9199C28.6953 84.1191 28.1338 83.123 27.7432 81.9316C27.3525 80.7402 27.1572 79.3535 27.1572 77.7715C27.1572 76.1602 27.3721 74.7295 27.8018 73.4795C28.2314 72.2295 28.832 71.1797 29.6035 70.3301C30.375 69.4805 31.2979 68.8359 32.3721 68.3965C33.4561 67.957 34.6475 67.7373 35.9463 67.7373C36.4736 67.7373 36.9814 67.7812 37.4697 67.8691C37.958 67.957 38.4072 68.0742 38.8174 68.2207C39.2373 68.3574 39.6133 68.5186 39.9453 68.7041C40.2773 68.8896 40.5068 69.0508 40.6338 69.1875C40.7705 69.3145 40.8633 69.4219 40.9121 69.5098C40.9609 69.5977 41 69.71 41.0293 69.8467C41.0586 69.9834 41.0781 70.1445 41.0879 70.3301C41.1074 70.5156 41.1172 70.7451 41.1172 71.0186C41.1172 71.3115 41.1074 71.5605 41.0879 71.7656C41.0684 71.9707 41.0342 72.1367 40.9854 72.2637C40.9365 72.3906 40.8779 72.4834 40.8096 72.542C40.7412 72.6006 40.6631 72.6299 40.5752 72.6299C40.4287 72.6299 40.2432 72.5469 40.0186 72.3809C39.7939 72.2051 39.501 72.0146 39.1396 71.8096C38.7881 71.5947 38.3633 71.4043 37.8652 71.2383C37.377 71.0625 36.791 70.9746 36.1074 70.9746C35.3555 70.9746 34.6816 71.1309 34.0859 71.4434C33.5 71.7461 32.9971 72.1855 32.5771 72.7617C32.167 73.3281 31.8545 74.0166 31.6396 74.8271C31.4248 75.6377 31.3174 76.5508 31.3174 77.5664C31.3174 78.6797 31.4297 79.6465 31.6543 80.4668C31.8887 81.2773 32.2158 81.9463 32.6357 82.4736C33.0654 83.001 33.5781 83.3965 34.1738 83.6602C34.7793 83.9141 35.458 84.041 36.21 84.041C36.8936 84.041 37.4844 83.9629 37.9824 83.8066C38.4805 83.6406 38.9053 83.46 39.2568 83.2646C39.6182 83.0693 39.9111 82.8936 40.1357 82.7373C40.3701 82.5811 40.5508 82.5029 40.6777 82.5029C40.7754 82.5029 40.8535 82.5225 40.9121 82.5615C40.9707 82.6006 41.0195 82.6787 41.0586 82.7959C41.0977 82.9131 41.127 83.0791 41.1465 83.2939C41.166 83.499 41.1758 83.7773 41.1758 84.1289ZM65.5361 86.4727C65.5361 86.5703 65.502 86.6582 65.4336 86.7363C65.375 86.8145 65.2725 86.8779 65.126 86.9268C64.9795 86.9756 64.7842 87.0146 64.54 87.0439C64.2959 87.0732 63.9883 87.0879 63.6172 87.0879C63.2363 87.0879 62.9189 87.0732 62.665 87.0439C62.4209 87.0146 62.2256 86.9756 62.0791 86.9268C61.9424 86.8779 61.8398 86.8145 61.7715 86.7363C61.7129 86.6582 61.6836 86.5703 61.6836 86.4727V78.8115H54.5938V86.4727C54.5938 86.5703 54.5645 86.6582 54.5059 86.7363C54.4473 86.8145 54.3447 86.8779 54.1982 86.9268C54.0518 86.9756 53.8564 87.0146 53.6123 87.0439C53.3682 87.0732 53.0557 87.0879 52.6748 87.0879C52.3037 87.0879 51.9912 87.0732 51.7373 87.0439C51.4932 87.0146 51.2979 86.9756 51.1514 86.9268C51.0049 86.8779 50.8975 86.8145 50.8291 86.7363C50.7705 86.6582 50.7412 86.5703 50.7412 86.4727V68.5723C50.7412 68.4746 50.7705 68.3867 50.8291 68.3086C50.8975 68.2305 51.0049 68.167 51.1514 68.1182C51.2979 68.0693 51.4932 68.0303 51.7373 68.001C51.9912 67.9717 52.3037 67.957 52.6748 67.957C53.0557 67.957 53.3682 67.9717 53.6123 68.001C53.8564 68.0303 54.0518 68.0693 54.1982 68.1182C54.3447 68.167 54.4473 68.2305 54.5059 68.3086C54.5645 68.3867 54.5938 68.4746 54.5938 68.5723V75.5303H61.6836V68.5723C61.6836 68.4746 61.7129 68.3867 61.7715 68.3086C61.8398 68.2305 61.9424 68.167 62.0791 68.1182C62.2256 68.0693 62.4209 68.0303 62.665 68.001C62.9189 67.9717 63.2363 67.957 63.6172 67.957C63.9883 67.957 64.2959 67.9717 64.54 68.001C64.7842 68.0303 64.9795 68.0693 65.126 68.1182C65.2725 68.167 65.375 68.2305 65.4336 68.3086C65.502 68.3867 65.5361 68.4746 65.5361 68.5723V86.4727ZM82.6602 79.8369C82.6602 80.9502 82.5137 81.9658 82.2207 82.8838C81.9277 83.8018 81.4834 84.5928 80.8877 85.2568C80.292 85.9209 79.5449 86.4336 78.6465 86.7949C77.748 87.1562 76.6982 87.3369 75.4971 87.3369C74.335 87.3369 73.3242 87.1758 72.4648 86.8535C71.6055 86.5312 70.8926 86.0625 70.3262 85.4473C69.7598 84.832 69.3398 84.0752 69.0664 83.1768C68.793 82.2783 68.6562 81.2529 68.6562 80.1006C68.6562 78.9873 68.8027 77.9717 69.0957 77.0537C69.3984 76.126 69.8477 75.335 70.4434 74.6807C71.0391 74.0166 71.7812 73.5039 72.6699 73.1426C73.5684 72.7812 74.6182 72.6006 75.8193 72.6006C76.9912 72.6006 78.0068 72.7617 78.8662 73.084C79.7256 73.3965 80.4336 73.8604 80.9902 74.4756C81.5566 75.0908 81.9766 75.8477 82.25 76.7461C82.5234 77.6445 82.6602 78.6748 82.6602 79.8369ZM78.8662 79.9834C78.8662 79.3389 78.8125 78.748 78.7051 78.2109C78.6074 77.6641 78.4365 77.1904 78.1924 76.79C77.9482 76.3896 77.6211 76.0771 77.2109 75.8525C76.8105 75.6279 76.3027 75.5156 75.6875 75.5156C75.1406 75.5156 74.6621 75.6182 74.252 75.8232C73.8418 76.0186 73.5049 76.3115 73.2412 76.7021C72.9775 77.083 72.7773 77.5469 72.6406 78.0938C72.5137 78.6309 72.4502 79.2461 72.4502 79.9395C72.4502 80.584 72.5039 81.1797 72.6113 81.7266C72.7188 82.2637 72.8896 82.7324 73.124 83.1328C73.3682 83.5332 73.6953 83.8457 74.1055 84.0703C74.5156 84.2852 75.0234 84.3926 75.6289 84.3926C76.1855 84.3926 76.6689 84.2949 77.0791 84.0996C77.4893 83.8945 77.8262 83.6016 78.0898 83.2207C78.3535 82.8398 78.5488 82.3809 78.6758 81.8438C78.8027 81.2969 78.8662 80.6768 78.8662 79.9834ZM97.6016 82.6641C97.6016 83.416 97.46 84.0752 97.1768 84.6416C96.9033 85.208 96.4834 85.6816 95.917 86.0625C95.3506 86.4336 94.6426 86.7168 93.793 86.9121C92.9434 87.1074 91.9424 87.2051 90.79 87.2051C90.4092 87.2051 90.0527 87.2002 89.7207 87.1904C89.3984 87.1904 89.0811 87.1855 88.7686 87.1758C88.4658 87.166 88.1582 87.1514 87.8457 87.1318C87.543 87.1123 87.2158 87.083 86.8643 87.0439C86.4053 87.0049 86.0781 86.8682 85.8828 86.6338C85.6875 86.3994 85.5898 86.0479 85.5898 85.5791V74.3145C85.5898 73.8652 85.6826 73.5283 85.8682 73.3037C86.0537 73.0693 86.3369 72.9277 86.7178 72.8789C86.9619 72.8594 87.2402 72.8398 87.5527 72.8203C87.875 72.8008 88.2217 72.7861 88.5928 72.7764C88.9639 72.7568 89.3496 72.7422 89.75 72.7324C90.1504 72.7227 90.5557 72.7178 90.9658 72.7178C92.0107 72.7178 92.9092 72.791 93.6611 72.9375C94.4229 73.084 95.0479 73.3086 95.5361 73.6113C96.0342 73.9043 96.4004 74.2705 96.6348 74.71C96.8789 75.1396 97.001 75.6475 97.001 76.2334C97.001 77.0244 96.7861 77.6836 96.3564 78.2109C95.9365 78.7383 95.3311 79.0947 94.54 79.2803C95.5264 79.4561 96.2832 79.8369 96.8105 80.4229C97.3379 80.999 97.6016 81.7461 97.6016 82.6641ZM93.5586 76.8926C93.5586 76.6289 93.5098 76.3945 93.4121 76.1895C93.3242 75.9844 93.1777 75.8135 92.9727 75.6768C92.7676 75.5303 92.4941 75.4229 92.1523 75.3545C91.8203 75.2764 91.415 75.2373 90.9365 75.2373C90.5654 75.2373 90.2139 75.2471 89.8818 75.2666C89.5596 75.2861 89.2764 75.3105 89.0322 75.3398V78.6357H91.0098C91.8398 78.6357 92.4697 78.4893 92.8994 78.1963C93.3389 77.8936 93.5586 77.459 93.5586 76.8926ZM93.9395 82.6494C93.9395 82.3369 93.8857 82.0635 93.7783 81.8291C93.6807 81.5947 93.5098 81.3994 93.2656 81.2432C93.0312 81.0869 92.7188 80.9746 92.3281 80.9062C91.9473 80.8281 91.4883 80.7891 90.9512 80.7891H89.0322V84.5391C89.1885 84.5586 89.3496 84.5781 89.5156 84.5977C89.6914 84.6074 89.8672 84.6172 90.043 84.627C90.2188 84.6367 90.3896 84.6465 90.5557 84.6562C90.7314 84.6562 90.8877 84.6562 91.0244 84.6562C91.542 84.6562 91.9863 84.6123 92.3574 84.5244C92.7285 84.4268 93.0312 84.29 93.2656 84.1143C93.5 83.9385 93.6709 83.7285 93.7783 83.4844C93.8857 83.2305 93.9395 82.9521 93.9395 82.6494ZM118.095 86.502C118.095 86.5996 118.065 86.6875 118.007 86.7656C117.948 86.834 117.851 86.8926 117.714 86.9414C117.577 86.9902 117.392 87.0244 117.157 87.0439C116.923 87.0732 116.62 87.0879 116.249 87.0879C115.897 87.0879 115.604 87.0732 115.37 87.0439C115.136 87.0244 114.945 86.9902 114.799 86.9414C114.662 86.8926 114.564 86.834 114.506 86.7656C114.447 86.6875 114.418 86.5996 114.418 86.502V73.4355C114.418 73.3379 114.447 73.2549 114.506 73.1865C114.564 73.1084 114.662 73.0449 114.799 72.9961C114.945 72.9473 115.136 72.9131 115.37 72.8936C115.604 72.8643 115.897 72.8496 116.249 72.8496C116.62 72.8496 116.923 72.8643 117.157 72.8936C117.392 72.9131 117.577 72.9473 117.714 72.9961C117.851 73.0449 117.948 73.1084 118.007 73.1865C118.065 73.2549 118.095 73.3379 118.095 73.4355V86.502ZM104.135 77.4639C104.467 77.4346 104.804 77.4102 105.146 77.3906C105.487 77.3711 105.868 77.3613 106.288 77.3613C107.362 77.3613 108.29 77.4736 109.071 77.6982C109.853 77.9131 110.497 78.2256 111.005 78.6357C111.513 79.0459 111.889 79.5439 112.133 80.1299C112.387 80.7061 112.514 81.3652 112.514 82.1074C112.514 82.8789 112.372 83.5869 112.089 84.2314C111.815 84.8662 111.396 85.4131 110.829 85.8721C110.263 86.3213 109.54 86.6729 108.661 86.9268C107.782 87.1709 106.737 87.293 105.526 87.293C105.204 87.293 104.877 87.2881 104.545 87.2783C104.213 87.2783 103.886 87.2686 103.563 87.249C103.251 87.2393 102.943 87.2246 102.641 87.2051C102.338 87.1855 102.05 87.1611 101.776 87.1318C101.308 87.083 100.966 86.9414 100.751 86.707C100.546 86.4727 100.443 86.1162 100.443 85.6377V73.4355C100.443 73.3379 100.473 73.2549 100.531 73.1865C100.59 73.1084 100.688 73.0449 100.824 72.9961C100.961 72.9473 101.142 72.9131 101.366 72.8936C101.591 72.8643 101.869 72.8496 102.201 72.8496C102.904 72.8496 103.402 72.8984 103.695 72.9961C103.988 73.0938 104.135 73.2402 104.135 73.4355V77.4639ZM108.749 82.3125C108.749 81.9707 108.695 81.668 108.588 81.4043C108.49 81.1309 108.324 80.9014 108.09 80.7158C107.865 80.5205 107.567 80.374 107.196 80.2764C106.825 80.1787 106.371 80.1299 105.834 80.1299C105.502 80.1299 105.194 80.1396 104.911 80.1592C104.638 80.1689 104.379 80.1836 104.135 80.2031V84.4219C104.418 84.4512 104.696 84.4756 104.97 84.4951C105.243 84.5146 105.561 84.5244 105.922 84.5244C106.898 84.5244 107.611 84.3291 108.061 83.9385C108.52 83.5479 108.749 83.0059 108.749 82.3125ZM140.229 86.4287C140.248 86.6729 140.136 86.8438 139.892 86.9414C139.647 87.0391 139.213 87.0879 138.588 87.0879C138.207 87.0879 137.899 87.083 137.665 87.0732C137.44 87.0635 137.265 87.0391 137.138 87C137.021 86.9609 136.938 86.9072 136.889 86.8389C136.85 86.7607 136.825 86.6631 136.815 86.5459L136.039 79.5293C136.01 79.2754 135.98 78.9922 135.951 78.6797C135.932 78.3672 135.907 78.0498 135.878 77.7275C135.858 77.4053 135.839 77.0879 135.819 76.7754C135.8 76.4531 135.775 76.165 135.746 75.9111L135.761 75.5449C135.692 75.8086 135.614 76.0967 135.526 76.4092C135.448 76.7217 135.36 77.0391 135.263 77.3613C135.165 77.6836 135.072 78.0059 134.984 78.3281C134.896 78.6406 134.813 78.9238 134.735 79.1777L132.436 86.4141C132.396 86.5312 132.338 86.6338 132.26 86.7217C132.182 86.8096 132.069 86.8828 131.923 86.9414C131.786 86.9902 131.605 87.0244 131.381 87.0439C131.166 87.0732 130.893 87.0879 130.561 87.0879C130.258 87.0879 129.999 87.0732 129.784 87.0439C129.579 87.0244 129.403 86.9902 129.257 86.9414C129.12 86.8828 129.013 86.8096 128.935 86.7217C128.856 86.6338 128.803 86.5264 128.773 86.3994L126.532 79.1777C126.454 78.9238 126.366 78.6406 126.269 78.3281C126.181 78.0156 126.088 77.6982 125.99 77.376C125.902 77.0537 125.814 76.7363 125.727 76.4238C125.648 76.1016 125.58 75.8086 125.521 75.5449L125.536 75.9111C125.517 76.165 125.497 76.4531 125.478 76.7754C125.458 77.0879 125.434 77.4053 125.404 77.7275C125.375 78.0498 125.346 78.3672 125.316 78.6797C125.287 78.9922 125.263 79.2754 125.243 79.5293L124.496 86.458C124.477 86.585 124.442 86.6924 124.394 86.7803C124.345 86.8584 124.252 86.9219 124.115 86.9707C123.979 87.0195 123.793 87.0488 123.559 87.0586C123.324 87.0781 123.017 87.0879 122.636 87.0879C122.294 87.0879 122.021 87.0781 121.815 87.0586C121.61 87.0391 121.449 87.0049 121.332 86.9561C121.225 86.8975 121.151 86.8291 121.112 86.751C121.083 86.6631 121.073 86.5557 121.083 86.4287L122.372 74.1973C122.421 73.7773 122.558 73.4648 122.782 73.2598C123.007 73.0449 123.349 72.9375 123.808 72.9375H125.668C126.059 72.9375 126.391 72.9668 126.664 73.0254C126.938 73.084 127.177 73.1865 127.382 73.333C127.587 73.4795 127.758 73.6797 127.895 73.9336C128.031 74.1875 128.153 74.5049 128.261 74.8857L129.726 79.3682C129.813 79.6611 129.901 79.9688 129.989 80.291C130.077 80.6035 130.165 80.9209 130.253 81.2432C130.341 81.5557 130.419 81.8633 130.487 82.166C130.565 82.459 130.634 82.7373 130.692 83.001H130.707C130.766 82.7373 130.834 82.4492 130.912 82.1367C130.99 81.8242 131.068 81.5068 131.146 81.1846C131.234 80.8623 131.322 80.5449 131.41 80.2324C131.508 79.9199 131.601 79.627 131.688 79.3535L133.153 74.8857C133.251 74.5342 133.358 74.2363 133.476 73.9922C133.593 73.7383 133.744 73.5381 133.93 73.3916C134.115 73.2354 134.345 73.123 134.618 73.0547C134.892 72.9766 135.229 72.9375 135.629 72.9375H137.475C137.943 72.9375 138.29 73.0449 138.515 73.2598C138.749 73.4648 138.886 73.7773 138.925 74.1973L140.229 86.4287ZM158.539 74.5635C158.539 74.8662 158.524 75.125 158.495 75.3398C158.466 75.5449 158.427 75.7109 158.378 75.8379C158.329 75.9648 158.271 76.0576 158.202 76.1162C158.134 76.165 158.051 76.1895 157.953 76.1895H153.705V86.502C153.705 86.5996 153.676 86.6875 153.617 86.7656C153.559 86.834 153.456 86.8926 153.31 86.9414C153.173 86.9902 152.987 87.0244 152.753 87.0439C152.519 87.0732 152.221 87.0879 151.859 87.0879C151.498 87.0879 151.2 87.0732 150.966 87.0439C150.731 87.0244 150.541 86.9902 150.395 86.9414C150.258 86.8926 150.16 86.834 150.102 86.7656C150.043 86.6875 150.014 86.5996 150.014 86.502V74.124C150.014 73.7334 150.097 73.4404 150.263 73.2451C150.429 73.04 150.688 72.9375 151.039 72.9375H157.953C158.051 72.9375 158.134 72.9668 158.202 73.0254C158.271 73.0742 158.329 73.1621 158.378 73.2891C158.427 73.416 158.466 73.5869 158.495 73.8018C158.524 74.0068 158.539 74.2607 158.539 74.5635ZM173.598 79.8369C173.598 80.9502 173.451 81.9658 173.158 82.8838C172.865 83.8018 172.421 84.5928 171.825 85.2568C171.229 85.9209 170.482 86.4336 169.584 86.7949C168.686 87.1562 167.636 87.3369 166.435 87.3369C165.272 87.3369 164.262 87.1758 163.402 86.8535C162.543 86.5312 161.83 86.0625 161.264 85.4473C160.697 84.832 160.277 84.0752 160.004 83.1768C159.73 82.2783 159.594 81.2529 159.594 80.1006C159.594 78.9873 159.74 77.9717 160.033 77.0537C160.336 76.126 160.785 75.335 161.381 74.6807C161.977 74.0166 162.719 73.5039 163.607 73.1426C164.506 72.7812 165.556 72.6006 166.757 72.6006C167.929 72.6006 168.944 72.7617 169.804 73.084C170.663 73.3965 171.371 73.8604 171.928 74.4756C172.494 75.0908 172.914 75.8477 173.188 76.7461C173.461 77.6445 173.598 78.6748 173.598 79.8369ZM169.804 79.9834C169.804 79.3389 169.75 78.748 169.643 78.2109C169.545 77.6641 169.374 77.1904 169.13 76.79C168.886 76.3896 168.559 76.0771 168.148 75.8525C167.748 75.6279 167.24 75.5156 166.625 75.5156C166.078 75.5156 165.6 75.6182 165.189 75.8232C164.779 76.0186 164.442 76.3115 164.179 76.7021C163.915 77.083 163.715 77.5469 163.578 78.0938C163.451 78.6309 163.388 79.2461 163.388 79.9395C163.388 80.584 163.441 81.1797 163.549 81.7266C163.656 82.2637 163.827 82.7324 164.062 83.1328C164.306 83.5332 164.633 83.8457 165.043 84.0703C165.453 84.2852 165.961 84.3926 166.566 84.3926C167.123 84.3926 167.606 84.2949 168.017 84.0996C168.427 83.8945 168.764 83.6016 169.027 83.2207C169.291 82.8398 169.486 82.3809 169.613 81.8438C169.74 81.2969 169.804 80.6768 169.804 79.9834ZM177.479 91.2773C177.479 91.3652 177.455 91.4385 177.406 91.4971C177.357 91.5654 177.27 91.6191 177.143 91.6582C177.016 91.707 176.85 91.7412 176.645 91.7607C176.449 91.79 176.2 91.8047 175.897 91.8047C175.585 91.8047 175.326 91.79 175.121 91.7607C174.916 91.7412 174.75 91.707 174.623 91.6582C174.496 91.6191 174.408 91.5654 174.359 91.4971C174.311 91.4385 174.286 91.3652 174.286 91.2773V84.7295C174.286 84.4365 174.335 84.2412 174.433 84.1436C174.53 84.0361 174.721 83.9824 175.004 83.9824H175.722C176.034 83.5723 176.327 83.1084 176.601 82.5908C176.874 82.0732 177.128 81.4336 177.362 80.6719C177.606 79.9004 177.826 78.9824 178.021 77.918C178.227 76.8438 178.417 75.5596 178.593 74.0654C178.612 73.8896 178.642 73.7334 178.681 73.5967C178.729 73.4502 178.793 73.3281 178.871 73.2305C178.949 73.1328 179.047 73.0596 179.164 73.0107C179.291 72.9619 179.442 72.9375 179.618 72.9375H187.689C188.041 72.9375 188.3 73.04 188.466 73.2451C188.632 73.4404 188.715 73.7334 188.715 74.124V83.9824H190.209C190.473 83.9824 190.658 84.0361 190.766 84.1436C190.883 84.2412 190.941 84.4365 190.941 84.7295V91.2773C190.941 91.3652 190.917 91.4385 190.868 91.4971C190.819 91.5654 190.731 91.6191 190.604 91.6582C190.478 91.707 190.312 91.7412 190.106 91.7607C189.901 91.79 189.643 91.8047 189.33 91.8047C189.027 91.8047 188.773 91.79 188.568 91.7607C188.363 91.7412 188.197 91.707 188.07 91.6582C187.953 91.6191 187.865 91.5654 187.807 91.4971C187.758 91.4385 187.733 91.3652 187.733 91.2773V87H177.479V91.2773ZM185.009 75.8818H181.889C181.723 77.1123 181.542 78.1719 181.347 79.0605C181.151 79.9395 180.946 80.6963 180.731 81.3311C180.517 81.9658 180.287 82.4883 180.043 82.8984C179.809 83.3086 179.574 83.6699 179.34 83.9824H185.009V75.8818ZM206.146 79.8369C206.146 80.9502 206 81.9658 205.707 82.8838C205.414 83.8018 204.97 84.5928 204.374 85.2568C203.778 85.9209 203.031 86.4336 202.133 86.7949C201.234 87.1562 200.185 87.3369 198.983 87.3369C197.821 87.3369 196.811 87.1758 195.951 86.8535C195.092 86.5312 194.379 86.0625 193.812 85.4473C193.246 84.832 192.826 84.0752 192.553 83.1768C192.279 82.2783 192.143 81.2529 192.143 80.1006C192.143 78.9873 192.289 77.9717 192.582 77.0537C192.885 76.126 193.334 75.335 193.93 74.6807C194.525 74.0166 195.268 73.5039 196.156 73.1426C197.055 72.7812 198.104 72.6006 199.306 72.6006C200.478 72.6006 201.493 72.7617 202.353 73.084C203.212 73.3965 203.92 73.8604 204.477 74.4756C205.043 75.0908 205.463 75.8477 205.736 76.7461C206.01 77.6445 206.146 78.6748 206.146 79.8369ZM202.353 79.9834C202.353 79.3389 202.299 78.748 202.191 78.2109C202.094 77.6641 201.923 77.1904 201.679 76.79C201.435 76.3896 201.107 76.0771 200.697 75.8525C200.297 75.6279 199.789 75.5156 199.174 75.5156C198.627 75.5156 198.148 75.6182 197.738 75.8232C197.328 76.0186 196.991 76.3115 196.728 76.7021C196.464 77.083 196.264 77.5469 196.127 78.0938C196 78.6309 195.937 79.2461 195.937 79.9395C195.937 80.584 195.99 81.1797 196.098 81.7266C196.205 82.2637 196.376 82.7324 196.61 83.1328C196.854 83.5332 197.182 83.8457 197.592 84.0703C198.002 84.2852 198.51 84.3926 199.115 84.3926C199.672 84.3926 200.155 84.2949 200.565 84.0996C200.976 83.8945 201.312 83.6016 201.576 83.2207C201.84 82.8398 202.035 82.3809 202.162 81.8438C202.289 81.2969 202.353 80.6768 202.353 79.9834ZM227.504 86.4287C227.523 86.6729 227.411 86.8438 227.167 86.9414C226.923 87.0391 226.488 87.0879 225.863 87.0879C225.482 87.0879 225.175 87.083 224.94 87.0732C224.716 87.0635 224.54 87.0391 224.413 87C224.296 86.9609 224.213 86.9072 224.164 86.8389C224.125 86.7607 224.101 86.6631 224.091 86.5459L223.314 79.5293C223.285 79.2754 223.256 78.9922 223.227 78.6797C223.207 78.3672 223.183 78.0498 223.153 77.7275C223.134 77.4053 223.114 77.0879 223.095 76.7754C223.075 76.4531 223.051 76.165 223.021 75.9111L223.036 75.5449C222.968 75.8086 222.89 76.0967 222.802 76.4092C222.724 76.7217 222.636 77.0391 222.538 77.3613C222.44 77.6836 222.348 78.0059 222.26 78.3281C222.172 78.6406 222.089 78.9238 222.011 79.1777L219.711 86.4141C219.672 86.5312 219.613 86.6338 219.535 86.7217C219.457 86.8096 219.345 86.8828 219.198 86.9414C219.062 86.9902 218.881 87.0244 218.656 87.0439C218.441 87.0732 218.168 87.0879 217.836 87.0879C217.533 87.0879 217.274 87.0732 217.06 87.0439C216.854 87.0244 216.679 86.9902 216.532 86.9414C216.396 86.8828 216.288 86.8096 216.21 86.7217C216.132 86.6338 216.078 86.5264 216.049 86.3994L213.808 79.1777C213.729 78.9238 213.642 78.6406 213.544 78.3281C213.456 78.0156 213.363 77.6982 213.266 77.376C213.178 77.0537 213.09 76.7363 213.002 76.4238C212.924 76.1016 212.855 75.8086 212.797 75.5449L212.812 75.9111C212.792 76.165 212.772 76.4531 212.753 76.7754C212.733 77.0879 212.709 77.4053 212.68 77.7275C212.65 78.0498 212.621 78.3672 212.592 78.6797C212.562 78.9922 212.538 79.2754 212.519 79.5293L211.771 86.458C211.752 86.585 211.718 86.6924 211.669 86.7803C211.62 86.8584 211.527 86.9219 211.391 86.9707C211.254 87.0195 211.068 87.0488 210.834 87.0586C210.6 87.0781 210.292 87.0879 209.911 87.0879C209.569 87.0879 209.296 87.0781 209.091 87.0586C208.886 87.0391 208.725 87.0049 208.607 86.9561C208.5 86.8975 208.427 86.8291 208.388 86.751C208.358 86.6631 208.349 86.5557 208.358 86.4287L209.647 74.1973C209.696 73.7773 209.833 73.4648 210.058 73.2598C210.282 73.0449 210.624 72.9375 211.083 72.9375H212.943C213.334 72.9375 213.666 72.9668 213.939 73.0254C214.213 73.084 214.452 73.1865 214.657 73.333C214.862 73.4795 215.033 73.6797 215.17 73.9336C215.307 74.1875 215.429 74.5049 215.536 74.8857L217.001 79.3682C217.089 79.6611 217.177 79.9688 217.265 80.291C217.353 80.6035 217.44 80.9209 217.528 81.2432C217.616 81.5557 217.694 81.8633 217.763 82.166C217.841 82.459 217.909 82.7373 217.968 83.001H217.982C218.041 82.7373 218.109 82.4492 218.188 82.1367C218.266 81.8242 218.344 81.5068 218.422 81.1846C218.51 80.8623 218.598 80.5449 218.686 80.2324C218.783 79.9199 218.876 79.627 218.964 79.3535L220.429 74.8857C220.526 74.5342 220.634 74.2363 220.751 73.9922C220.868 73.7383 221.02 73.5381 221.205 73.3916C221.391 73.2354 221.62 73.123 221.894 73.0547C222.167 72.9766 222.504 72.9375 222.904 72.9375H224.75C225.219 72.9375 225.565 73.0449 225.79 73.2598C226.024 73.4648 226.161 73.7773 226.2 74.1973L227.504 86.4287ZM235.692 80.7891C235.683 80.8867 235.653 80.9746 235.604 81.0527C235.556 81.1309 235.468 81.1992 235.341 81.2578C235.224 81.3066 235.058 81.3457 234.843 81.375C234.638 81.4043 234.384 81.4189 234.081 81.4189C233.769 81.4189 233.51 81.4043 233.305 81.375C233.1 81.3457 232.934 81.3066 232.807 81.2578C232.689 81.1992 232.606 81.1309 232.558 81.0527C232.509 80.9746 232.479 80.8867 232.47 80.7891L232.089 67.4883C232.089 67.3613 232.118 67.249 232.177 67.1514C232.235 67.0537 232.338 66.9756 232.484 66.917C232.641 66.8486 232.846 66.7998 233.1 66.7705C233.363 66.7412 233.69 66.7266 234.081 66.7266C234.472 66.7266 234.794 66.7461 235.048 66.7852C235.302 66.8145 235.502 66.8633 235.648 66.9316C235.805 66.9902 235.912 67.0684 235.971 67.166C236.039 67.2539 236.073 67.3613 236.073 67.4883L235.692 80.7891ZM236.146 85.0811C236.146 85.4814 236.112 85.8184 236.044 86.0918C235.985 86.3652 235.873 86.585 235.707 86.751C235.551 86.917 235.341 87.0342 235.077 87.1025C234.813 87.1807 234.481 87.2197 234.081 87.2197C233.681 87.2197 233.344 87.1807 233.07 87.1025C232.807 87.0342 232.597 86.917 232.44 86.751C232.284 86.585 232.172 86.3652 232.104 86.0918C232.045 85.8184 232.016 85.4814 232.016 85.0811C232.016 84.6709 232.045 84.3291 232.104 84.0557C232.172 83.7725 232.284 83.5479 232.44 83.3818C232.597 83.2061 232.807 83.084 233.07 83.0156C233.344 82.9375 233.681 82.8984 234.081 82.8984C234.481 82.8984 234.813 82.9375 235.077 83.0156C235.341 83.084 235.551 83.2061 235.707 83.3818C235.873 83.5479 235.985 83.7725 236.044 84.0557C236.112 84.3291 236.146 84.6709 236.146 85.0811ZM245.478 80.7891C245.468 80.8867 245.438 80.9746 245.39 81.0527C245.341 81.1309 245.253 81.1992 245.126 81.2578C245.009 81.3066 244.843 81.3457 244.628 81.375C244.423 81.4043 244.169 81.4189 243.866 81.4189C243.554 81.4189 243.295 81.4043 243.09 81.375C242.885 81.3457 242.719 81.3066 242.592 81.2578C242.475 81.1992 242.392 81.1309 242.343 81.0527C242.294 80.9746 242.265 80.8867 242.255 80.7891L241.874 67.4883C241.874 67.3613 241.903 67.249 241.962 67.1514C242.021 67.0537 242.123 66.9756 242.27 66.917C242.426 66.8486 242.631 66.7998 242.885 66.7705C243.148 66.7412 243.476 66.7266 243.866 66.7266C244.257 66.7266 244.579 66.7461 244.833 66.7852C245.087 66.8145 245.287 66.8633 245.434 66.9316C245.59 66.9902 245.697 67.0684 245.756 67.166C245.824 67.2539 245.858 67.3613 245.858 67.4883L245.478 80.7891ZM245.932 85.0811C245.932 85.4814 245.897 85.8184 245.829 86.0918C245.771 86.3652 245.658 86.585 245.492 86.751C245.336 86.917 245.126 87.0342 244.862 87.1025C244.599 87.1807 244.267 87.2197 243.866 87.2197C243.466 87.2197 243.129 87.1807 242.855 87.1025C242.592 87.0342 242.382 86.917 242.226 86.751C242.069 86.585 241.957 86.3652 241.889 86.0918C241.83 85.8184 241.801 85.4814 241.801 85.0811C241.801 84.6709 241.83 84.3291 241.889 84.0557C241.957 83.7725 242.069 83.5479 242.226 83.3818C242.382 83.2061 242.592 83.084 242.855 83.0156C243.129 82.9375 243.466 82.8984 243.866 82.8984C244.267 82.8984 244.599 82.9375 244.862 83.0156C245.126 83.084 245.336 83.2061 245.492 83.3818C245.658 83.5479 245.771 83.7725 245.829 84.0557C245.897 84.3291 245.932 84.6709 245.932 85.0811ZM255.263 80.7891C255.253 80.8867 255.224 80.9746 255.175 81.0527C255.126 81.1309 255.038 81.1992 254.911 81.2578C254.794 81.3066 254.628 81.3457 254.413 81.375C254.208 81.4043 253.954 81.4189 253.651 81.4189C253.339 81.4189 253.08 81.4043 252.875 81.375C252.67 81.3457 252.504 81.3066 252.377 81.2578C252.26 81.1992 252.177 81.1309 252.128 81.0527C252.079 80.9746 252.05 80.8867 252.04 80.7891L251.659 67.4883C251.659 67.3613 251.688 67.249 251.747 67.1514C251.806 67.0537 251.908 66.9756 252.055 66.917C252.211 66.8486 252.416 66.7998 252.67 66.7705C252.934 66.7412 253.261 66.7266 253.651 66.7266C254.042 66.7266 254.364 66.7461 254.618 66.7852C254.872 66.8145 255.072 66.8633 255.219 66.9316C255.375 66.9902 255.482 67.0684 255.541 67.166C255.609 67.2539 255.644 67.3613 255.644 67.4883L255.263 80.7891ZM255.717 85.0811C255.717 85.4814 255.683 85.8184 255.614 86.0918C255.556 86.3652 255.443 86.585 255.277 86.751C255.121 86.917 254.911 87.0342 254.647 87.1025C254.384 87.1807 254.052 87.2197 253.651 87.2197C253.251 87.2197 252.914 87.1807 252.641 87.1025C252.377 87.0342 252.167 86.917 252.011 86.751C251.854 86.585 251.742 86.3652 251.674 86.0918C251.615 85.8184 251.586 85.4814 251.586 85.0811C251.586 84.6709 251.615 84.3291 251.674 84.0557C251.742 83.7725 251.854 83.5479 252.011 83.3818C252.167 83.2061 252.377 83.084 252.641 83.0156C252.914 82.9375 253.251 82.8984 253.651 82.8984C254.052 82.8984 254.384 82.9375 254.647 83.0156C254.911 83.084 255.121 83.2061 255.277 83.3818C255.443 83.5479 255.556 83.7725 255.614 84.0557C255.683 84.3291 255.717 84.6709 255.717 85.0811Z" fill="#2B86CD"/>
</svg>
